<?xml version="1.0" encoding="UTF-8" standalone="no"?>
<svg width="2331px" height="2331px" viewBox="0 0 2331 2331" version="1.1" xmlns="http://www.w3.org/2000/svg" xmlns:xlink="http://www.w3.org/1999/xlink" xmlns:sketch="http://www.bohemiancoding.com/sketch/ns">
    <!-- Generator: Sketch 3.3.2 (12043) - http://www.bohemiancoding.com/sketch -->
    <title>step3</title>
    <desc>Created with Sketch.</desc>
    <defs></defs>
    <g id="Page-1" stroke="none" stroke-width="1" fill="none" fill-rule="evenodd" sketch:type="MSPage">
        <g id="Group-+-Path-27-Copy-3-+-Triangle-2-Copy-12" sketch:type="MSLayerGroup" transform="translate(44.069167, 221.619206)">
            <g id="Group" sketch:type="MSShapeGroup">
                <g id="Macbook-Pro-+-Oval-5-Copy-3" transform="translate(369.646400, 937.101319)">
                    <g id="Macbook-Pro">
                        <path d="M1656.64531,945.149202 L1.38409969,945.149202 C0.617697382,945.149202 0,944.524498 0,943.750325 L0,896.299641 C0,895.536965 0.621510329,894.900763 1.38409969,894.900763 L1656.64531,894.900763 C1657.40028,894.900763 1658.0256,895.536965 1658.0256,896.299641 L1658.0256,943.750325 C1658.0256,944.524498 1657.40028,945.149202 1656.64531,945.149202 Z" id="Shape" stroke="#3B3B3B" stroke-width="8" fill="#FFFFFF"></path>
                        <path d="M1514.4736,53.6951925 C1514.4736,24.0401785 1490.52537,0 1461.00104,0 L204.210317,0 C174.677833,0 150.7296,24.0401785 150.7296,53.6951925 L150.7296,894.900763 L1514.46952,894.900763 L1514.46952,53.6951925 L1514.4736,53.6951925 Z" id="Shape" stroke="#3B3B3B" stroke-width="8" fill="#CDD4D6"></path>
                        <rect id="Rectangle" stroke="#3B3B3B" stroke-width="8" fill="#FFFFFF" x="205.757867" y="52.6412214" width="1253.68747" height="789.618321"></rect>
                        <path d="M1.19626667,945.149202 C5.98661496,954.830052 20.8584864,961.898681 38.4982845,961.898681 L1619.52732,961.898681 C1637.15947,961.898681 1652.03899,954.834651 1656.82933,945.149202 L1.19626667,945.149202 L1.19626667,945.149202 Z" id="Shape" stroke="#3B3B3B" stroke-width="8" fill="#FFFFFF"></path>
                        <path d="M722.545067,904.712195 C722.545067,917.12788 732.148984,927.203331 743.992158,927.203331 L921.218698,927.203331 C933.065699,927.203331 942.658133,917.12788 942.658133,904.712195 C942.658133,903.407604 942.501194,902.135127 942.290666,900.88272 L722.912534,900.88272 C722.709662,902.135127 722.545067,903.407604 722.545067,904.712195 Z" id="Shape" stroke="#FFFFFF" stroke-width="4" fill="#3B3B3B"></path>
                    </g>
                    <ellipse id="Oval-5" fill="#3B3B3B" cx="829.0128" cy="25.1242193" rx="10.7664" ry="10.7675226"></ellipse>
                </g>
                <rect id="Rectangle-18-Copy-3" stroke="#3B3B3B" stroke-width="8" fill="#FFFFFF" x="834.994133" y="1185.95073" width="715.367467" height="435.486468"></rect>
                <rect id="Rectangle-19-Copy-7" stroke="#3B3B3B" stroke-width="6" fill="#4A7DBB" x="910.358933" y="1276.87647" width="253.608533" height="253.634976"></rect>
                <rect id="Rectangle-19-Copy-8" stroke="#3B3B3B" stroke-width="6" fill="#A9C6E8" x="1223.7808" y="1276.87647" width="253.608533" height="253.634976"></rect>
                <g id="subicon_stats-copy-2" transform="translate(369.646400, 0.200555)" stroke="#3B3B3B">
                    <path d="M0.716506218,560.234755 L677.415346,560.234755" id="Path-166" stroke-width="8"></path>
                    <rect id="Rectangle-118" stroke-width="4" fill-opacity="0.699999988" fill="#4A7DBB" x="114.640995" y="322.461416" width="126.105094" height="199.209497"></rect>
                    <rect id="Rectangle-118-Copy" stroke-width="4" fill="#CDD4D6" x="276.5714" y="146.182509" width="126.105094" height="375.488404"></rect>
                    <rect id="Rectangle-118-Copy-2" stroke-width="4" fill="#A9C6E8" x="438.501806" y="0" width="126.105094" height="521.670913"></rect>
                </g>
                <g id="ls_chat_icon-copy-5" transform="translate(0.000000, 1069.900763)" stroke="#3B3B3B" stroke-width="8">
                    <path d="M53.3418785,174.315577 C21.0040039,156.179308 0.479511516,129.111142 0.479511516,98.8724664 C0.479511516,44.266711 67.4099605,0 149.972853,0 C232.535746,0 299.466195,44.266711 299.466195,98.8724664 C299.466195,153.478222 232.535746,197.744933 149.972853,197.744933 C131.351595,197.744933 113.525535,195.493155 97.0832074,191.378848 L18.1790447,272.173858 L53.3418858,174.315581 Z" id="Oval-114-Copy" fill="#FFFFFF"></path>
                    <path d="M397.517691,241.874697 C406.956114,228.912245 412.245084,214.379123 412.245084,199.028991 C412.245084,159.228374 376.68797,124.920423 325.437189,109.242499 L325.437189,109.242499 C323.658268,173.206439 241.623223,224.710151 140.68521,224.710151 C133.005561,224.710151 125.435333,224.412017 118.001561,223.832945 C134.642016,266.433752 193.140592,297.901457 262.751742,297.901457 C308.710228,297.901457 349.824888,284.185098 377.247767,262.604271 L441.293651,284.688671 L397.517685,241.874705 Z" id="Path-Copy-6" fill="#A9C6E8"></path>
                </g>
                <g id="Rectangle-117-Copy-+-Shape-+-Path-179-Copy-3-+-Path-179-Copy-4-Copy-Copy" transform="translate(1550.361600, 216.236483)">
                    <g id="Shape-+-Path-179-Copy-3-+-Path-179-Copy-4" transform="translate(0.714070, 0.743157)">
                        <path d="M500.958133,358.011442 C481.706262,349.438378 461.654039,343.925793 441.043431,340.343854 C427.729053,338.022111 421.574411,328.505452 415.928519,318.312134 C419.440139,314.637077 422.796653,311.744211 425.390041,308.28643 C450.715899,274.372853 464.377717,236.734557 458.117601,194.117552 C453.656726,163.711421 437.134737,141.294814 407.056403,131.163575 C382.456445,122.869865 358.079841,123.87554 334.57804,136.005711 C331.57517,133.510149 328.739815,130.958716 325.681107,128.686636 C287.537213,100.329101 230.153856,102.179045 193.356289,132.752789 C191.966531,133.91366 189.174607,134.248885 187.319528,133.801919 C177.814576,131.579502 168.532977,127.767872 158.928757,126.693911 C134.6204,123.987281 111.993402,128.972198 93.9141393,146.608748 C75.8721021,164.195634 67.5707796,186.314263 66.7828365,211.282304 C65.7467222,244.003969 76.5731854,273.379595 93.0765619,300.961147 C96.1042491,306.032974 100.316953,310.552301 104.610313,314.668117 C107.526323,317.461657 107.489097,319.702697 105.646427,322.63281 C99.5290099,332.397784 91.8605237,339.263685 79.5946683,341.132253 C59.0833288,344.267225 39.2482556,350.115036 20.4555009,359.302679 C9.93925158,364.442792 3.87767306,372.475772 2.02259427,383.910662 C1.45800507,387.461562 0.682470458,390.975215 0,394.488867 L0,417.402104 C3.05250423,421.915223 7.33345529,423.05747 12.6505206,422.989184 C34.2848341,422.759493 55.9377605,422.896066 77.5782783,422.896066 L87.4492828,422.896066 C77.8884921,429.644017 74.1535174,438.322615 72.7823722,447.802027 C71.2437116,458.374024 70.5054026,469.101218 70.0773075,479.778749 C69.6678252,490.226589 72.4535455,492.684904 82.771258,492.684904 L441.279194,492.684904 C442.551071,492.684904 443.835356,492.740775 445.094824,492.653864 C450.213353,492.281392 453.997962,489.109173 453.88008,484.043553 C453.365125,462.527087 455.915083,440.147727 437.674509,422.889858 C463.074819,422.889858 487.991195,422.889858 512.895162,422.88365 C520.625691,422.88365 524.056656,419.680391 523.889141,412.069546 C523.72783,404.253842 523.442433,396.438138 522.710328,388.659681 C521.382613,374.369171 514.619951,364.10136 500.958133,358.011442 L500.958133,358.011442 Z M22.8379432,405.402297 C21.2434441,405.402297 19.6489449,405.253308 16.9376759,405.110527 C18.1909398,397.251368 18.7927547,389.646731 20.8339618,382.458022 C21.6591306,379.546532 25.207977,376.361896 28.2232556,375.269312 C43.7339478,369.707063 59.4245641,364.672483 75.1399974,359.731021 C79.4333571,358.377706 84.0555433,358.042482 88.5102141,357.142341 C98.7720881,355.093745 107.172679,349.649446 113.33973,341.486101 C118.439646,334.731942 122.540673,327.195592 126.72856,319.795815 C129.011734,315.773117 128.751154,311.197919 124.693557,308.54716 C110.187958,299.086371 102.947566,284.659289 96.4578928,269.437599 C90.0612834,254.458017 85.4949356,239.137002 84.4712299,222.754441 C83.2738044,203.305195 86.5434584,185.078898 97.829038,168.839119 C112.539379,147.670293 133.652533,141.586583 158.035341,144.125601 C164.785594,144.820882 171.380741,146.906725 176.87773,148.111051 C171.04571,162.513302 163.83634,175.630525 160.39917,189.678927 C152.327406,222.667531 155.919683,255.389197 167.757443,287.086565 C172.323791,299.309854 177.591222,311.309661 183.305361,323.030113 C190.22313,337.202673 199.703265,349.587367 212.632978,359.96692 C204.015237,376.157037 194.826703,390.826226 174.04858,393.681845 C161.51594,395.407632 149.343149,399.504824 136.909778,402.124544 C129.712817,403.639263 122.34834,405.178814 115.045906,405.271932 C84.3099187,405.607157 53.5677267,405.414713 22.8379432,405.402297 L22.8379432,405.402297 Z M86.5310498,475.011107 C88.3613115,464.290121 89.626984,453.929192 92.1459204,443.891071 C92.9276593,440.768514 96.6502254,437.40385 99.8206109,436.031912 C114.288985,429.817837 128.819401,423.5541 143.771708,418.699548 C155.808006,414.782384 168.408892,412.392355 180.898101,410.169939 C193.753363,407.86682 204.424719,401.776903 212.14284,391.807069 C219.420457,382.408359 225.153208,371.799114 231.270625,361.549926 C233.832992,357.26029 232.951984,352.796834 228.73928,349.984671 C208.656036,336.581886 198.62372,316.263538 189.497229,294.970555 C180.805037,274.70187 175.196371,253.911725 174.054784,231.86759 C172.54094,202.895476 178.118585,176.040244 197.655853,153.58639 C217.056627,131.29394 242.581022,124.496326 271.002815,126.656664 C322.268755,130.555204 345.534793,170.459372 349.244951,208.29632 C353.414225,250.845038 340.044008,288.930301 319.085961,324.966968 C313.359413,334.781605 305.616475,342.963573 296.055685,349.363884 C291.234962,352.585767 290.229869,356.267032 292.544064,361.618213 C297.631571,373.375913 304.350803,384.065859 313.011973,393.601142 C323.844641,405.53887 337.984188,409.424995 353.172258,412.156456 C375.737213,416.228817 397.59488,422.79674 418.503293,432.561714 C428.839619,437.385227 434.485511,444.629807 435.167981,455.903293 C435.540238,462.055289 435.999354,468.188662 436.452267,475.011107 L86.5310498,475.011107 L86.5310498,475.011107 Z M501.981839,405.389881 C467.988606,405.402297 433.982964,405.414713 399.995936,405.340218 C397.867869,405.340218 395.727393,404.72564 393.630347,404.222802 C378.101042,400.53533 362.695823,396.214654 347.030024,393.22867 C331.420063,390.26131 322.858161,379.558948 315.177266,367.36049 C313.737874,365.094618 312.738985,362.549393 311.988268,361.022258 C347.74972,322.670057 364.985201,277.414708 367.43589,226.16256 C368.689154,199.903284 362.149846,175.438081 348.270879,153.015266 C347.79315,152.251699 347.377463,151.444676 346.974185,150.631445 C346.905938,150.50108 347.005207,150.29622 347.234765,148.769085 C353.290139,147.260574 359.773608,144.789843 366.455615,144.150432 C389.783696,141.884561 411.095387,146.441135 427.220303,165.089567 C436.861749,176.245104 440.92555,189.790669 441.837579,204.223959 C443.990463,238.18099 432.866194,268.164987 413.341335,295.336819 C410.04066,299.949264 405.201324,303.574659 400.734244,307.231092 C395.950747,311.13584 394.685074,314.277021 397.141968,319.963427 C401.491166,330.08225 407.348004,339.226437 415.506628,346.719333 C421.785356,352.51748 429.112607,356.031133 437.662101,357.533437 C457.373088,360.997426 476.693206,365.839562 494.865533,374.611278 C500.896091,377.51656 504.221583,381.663415 504.742742,388.318248 C505.177042,393.7253 505.915351,399.119936 506.5668,404.949123 C504.748947,405.129151 503.371597,405.389881 501.981839,405.389881 L501.981839,405.389881 Z" id="Shape" fill="#3B3B3B"></path>
                        <path d="M502.773925,0.188878343 L502.773925,148.221995" id="Path-179-Copy-3" stroke="#4A7DBB" stroke-width="20" stroke-linecap="round"></path>
                        <path d="M576.736131,74.3728861 L428.788618,74.3728866" id="Path-179-Copy-4" stroke="#4A7DBB" stroke-width="20" stroke-linecap="round"></path>
                    </g>
                </g>
                <path d="M1158.69074,1069.90076 C1509.13531,738.083437 1107.74293,478.883414 1107.74293,478.883414" id="Path-187-Copy-2" stroke="#3B3B3B" stroke-width="8" stroke-dasharray="30"></path>
                <path d="M1086.21013,465.131803 L1141.2384,463.330326 L1115.46904,511.185982 L1086.21013,465.131803 L1086.21013,465.131803 Z" id="Triangle-2-Copy-14" fill="#3B3B3B"></path>
                <path d="M1687.9352,1465.38576 C2217.73567,1198.61308 2018.77986,819.170079 2018.77986,819.170079" id="Path-188-Copy" stroke="#3B3B3B" stroke-width="8" stroke-dasharray="30,30"></path>
                <path d="M2038.4384,805.400714 L1983.41013,823.444136 L1991.59134,775.58848 L2038.4384,805.400714 L2038.4384,805.400714 Z" id="Triangle-2-Copy-15" fill="#3B3B3B"></path>
            </g>
            <path d="M472.310619,1333.90823 C536.834277,1413.61941 578.553407,1535.69558 538.962404,1634.40929 C499.3714,1733.12301 353,1677.3669 353,1677.3669" id="Path-27-Copy-3" stroke="#3B3B3B" stroke-width="8" stroke-dasharray="30" sketch:type="MSShapeGroup" transform="translate(453.700093, 1513.481513) rotate(94.000000) translate(-453.700093, -1513.481513) "></path>
            <polygon id="Triangle-2-Copy-12" fill="#3B3B3B" sketch:type="MSShapeGroup" transform="translate(292.000000, 1412.908225) rotate(-344.000000) translate(-292.000000, -1412.908225) " points="292 1392.90823 315 1432.90823 269 1432.90823 "></polygon>
        </g>
    </g>
</svg>