<?xml version="1.0" encoding="UTF-8" standalone="no"?>
<svg width="2331px" height="2331px" viewBox="0 0 2331 2331" version="1.1" xmlns="http://www.w3.org/2000/svg" xmlns:xlink="http://www.w3.org/1999/xlink" xmlns:sketch="http://www.bohemiancoding.com/sketch/ns">
    <!-- Generator: Sketch 3.3.2 (12043) - http://www.bohemiancoding.com/sketch -->
    <title>step2 copy 6</title>
    <desc>Created with Sketch.</desc>
    <defs>
        <linearGradient x1="50%" y1="0%" x2="50%" y2="100%" id="linearGradient-1">
            <stop stop-color="#32EB8A" offset="0%"></stop>
            <stop stop-color="#FFFFFF" offset="100%"></stop>
        </linearGradient>
    </defs>
    <g id="Page-1" stroke="none" stroke-width="1" fill="none" fill-rule="evenodd" sketch:type="MSPage">
        <g id="ppt-icon-copy" sketch:type="MSLayerGroup" transform="translate(798.000000, 1392.000000)">
            <g transform="translate(345.544548, 357.081439) rotate(-18.000000) translate(-345.544548, -357.081439) translate(76.544548, 69.081439)" sketch:type="MSShapeGroup">
                <path d="M352,1 L41.415636,1 L41.415636,575.415816 L498.423213,575.415816 L498.423213,147.328148 L496.928072,147.328148 L496.926669,147.668621 L351.196108,1.93805934 L352,1.93606949 L352,1 Z" id="Rectangle-7" stroke="#3B3B3B" stroke-width="8" fill="#FFFFFF"></path>
                <path d="M352.99758,10.3313988 L352.99758,149.671367" id="Line" stroke="#3B3B3B" stroke-width="8" stroke-linecap="square"></path>
                <path d="M490.650975,152.162057 L350.750697,152.162057" id="Line" stroke="#3B3B3B" stroke-width="8" stroke-linecap="square"></path>
                <rect id="Rectangle-10" stroke="#3B3B3B" stroke-width="8" fill="#4A7DBB" x="1" y="245.399141" width="536.284401" height="238.172412"></rect>
                <path d="M71.8518403,365.093054 L71.8518403,406.155365 L52.6489484,406.155365 L52.6489484,295.64386 L94.925671,295.64386 C107.272256,295.64386 117.076006,298.85696 124.337215,305.283256 C131.598424,311.709553 135.228974,320.210353 135.228974,330.785911 C135.228974,341.614474 131.674324,350.039374 124.564917,356.060864 C117.455511,362.082354 107.499961,365.093054 94.6979687,365.093054 L71.8518403,365.093054 Z M71.8518403,349.6852 L94.925671,349.6852 C101.756773,349.6852 106.968573,348.07865 110.561227,344.865502 C114.153881,341.652354 115.950181,337.009804 115.950181,330.937713 C115.950181,324.966823 114.128581,320.197773 110.485327,316.63042 C106.842072,313.063066 101.832672,311.228816 95.4569763,311.127615 L71.8518403,311.127615 L71.8518403,349.6852 Z M171.205934,365.093054 L171.205934,406.155365 L152.003042,406.155365 L152.003042,295.64386 L194.279764,295.64386 C206.626349,295.64386 216.430099,298.85696 223.691308,305.283256 C230.952517,311.709553 234.583067,320.210353 234.583067,330.785911 C234.583067,341.614474 231.028417,350.039374 223.919011,356.060864 C216.809604,362.082354 206.854054,365.093054 194.052062,365.093054 L171.205934,365.093054 Z M171.205934,349.6852 L194.279764,349.6852 C201.110867,349.6852 206.322667,348.07865 209.915321,344.865502 C213.507974,341.652354 215.304274,337.009804 215.304274,330.937713 C215.304274,324.966823 213.482674,320.197773 209.83942,316.63042 C206.196165,313.063066 201.186765,311.228816 194.81107,311.127615 L171.205934,311.127615 L171.205934,349.6852 Z M331.204733,311.127615 L296.745789,311.127615 L296.745789,406.155365 L277.694698,406.155365 L277.694698,311.127615 L243.539357,311.127615 L243.539357,295.64386 L331.204733,295.64386 L331.204733,311.127615 Z" id="PPT" fill="#FFFFFF"></path>
            </g>
        </g>
        <g id="link_icon-copy-2" sketch:type="MSLayerGroup" transform="translate(658.305023, 1476.361458) rotate(-77.000000) translate(-658.305023, -1476.361458) translate(511.441951, 1329.935172)" fill="#3B3B3B">
            <g id="Group" transform="translate(0.926581, 0.000000)" sketch:type="MSShapeGroup">
                <path d="M43.1586862,114.514699 C33.0746409,104.428828 27.0989103,90.9809995 26.7254271,76.7860699 C26.351944,62.9646911 31.5807082,50.2639646 40.9177873,40.9251952 C50.2548663,31.5864257 62.9532938,26.3567148 76.7721708,26.7302656 C90.964531,27.1038164 104.036442,32.707078 114.49397,43.1664998 L152.21577,80.8951285 C173.130827,101.813972 174.251276,134.686441 154.456669,154.484632 C149.227904,159.714343 149.227904,167.93246 154.456669,172.78862 C157.071051,175.403475 160.432399,176.524128 163.793748,176.524128 C167.155096,176.524128 170.516444,175.403475 173.130827,172.78862 C203.00948,142.904558 201.88903,93.2223042 170.889928,62.2175895 L133.168128,24.8625117 C118.228802,9.92048054 98.4341942,1.32881263 77.8926203,0.955261854 C56.9775632,0.208160297 37.1829557,8.05272665 22.6171123,22.621207 C8.05126902,37.1896874 0.208122617,56.6143279 0.955088941,77.9067222 C1.3285721,98.8255658 9.91868483,118.250206 24.8580113,133.192237 L62.5798107,170.920866 C67.8085749,176.150577 76.0252045,176.150577 80.8804856,170.920866 C86.1092499,165.691155 86.1092499,157.473038 80.8804856,152.616878 L43.1586862,114.514699 L43.1586862,114.514699 Z" id="Shape"></path>
                <path d="M268.369033,160.087894 L230.647234,122.359265 C225.418469,117.129554 217.20184,117.129554 212.346559,122.359265 C207.117794,127.588976 207.117794,135.807093 212.346559,140.663253 L250.068358,178.391882 C260.152403,188.477753 266.128134,201.925581 266.501617,216.12051 C266.8751,229.941889 261.646336,242.642616 252.309257,251.981385 C242.972178,261.320155 230.27375,266.549865 216.454873,266.176315 C202.262513,265.802764 189.190603,260.199502 178.733074,249.74008 L141.011275,212.385003 C120.096218,191.466159 118.975768,158.59369 138.770376,138.795499 C143.99914,133.565788 143.99914,125.347671 138.770376,120.491511 C133.541611,115.2618 125.324982,115.2618 120.469701,120.491511 C90.5910478,150.375573 91.7114973,200.057827 122.7106,231.062541 L160.432399,268.79117 C175.371726,283.733201 195.166333,292.324869 215.707907,292.69842 L217.575323,292.69842 C237.743414,292.69842 256.791055,284.853854 270.609932,271.032475 C285.175775,256.463994 293.018922,237.039354 292.271955,215.74696 C291.898472,194.828116 283.308359,175.029925 268.369033,160.087894 L268.369033,160.087894 Z" id="Shape"></path>
            </g>
        </g>
        <g id="video-icon-copy" sketch:type="MSLayerGroup" transform="translate(1763.811160, 1576.509964) rotate(38.000000) translate(-1763.811160, -1576.509964) translate(1518.966924, 1396.469940)">
            <rect id="Rectangle-12" stroke="#3B3B3B" stroke-width="8" fill="#4A7DBB" sketch:type="MSShapeGroup" x="0" y="0" width="489.688472" height="359.348178"></rect>
            <rect id="Rectangle-13" stroke="#3B3B3B" stroke-width="8" fill="#D8D8D8" sketch:type="MSShapeGroup" x="0" y="281.431259" width="489.688472" height="77.9169188"></rect>
            <rect id="Rectangle-16" fill="#3B3B3B" sketch:type="MSShapeGroup" x="110.499774" y="320.971188" width="333.825633" height="5.81469543"></rect>
            <rect id="Rectangle-17" stroke="#3B3B3B" stroke-width="2" fill="#FFFFFF" sketch:type="MSShapeGroup" x="359.996632" y="302.364163" width="24.4262658" height="36.0511117"></rect>
            <rect id="Rectangle-14" fill="#3B3B3B" sketch:type="MSShapeGroup" x="45.3630651" y="303.527102" width="9.30524412" height="34.8881726"></rect>
            <rect id="Rectangle-14-Copy" fill="#3B3B3B" sketch:type="MSShapeGroup" x="56.9946202" y="303.527102" width="9.30524412" height="34.8881726"></rect>
            <path d="M204.715371,207.003157 L204.715371,79.0798579 L314.051989,143.041508 L204.715371,207.003157 Z" id="Triangle-2" stroke="#3B3B3B" stroke-width="8" fill="#FFFFFF" sketch:type="MSShapeGroup"></path>
        </g>
        <g id="Group-Copy" sketch:type="MSLayerGroup" transform="translate(248.359594, 86.619206)" stroke="#3B3B3B">
            <path d="M414.397176,549.835643 C416.327392,547.860975 420.128144,546.26019 422.89024,546.26019 L1401.85019,546.26019 C1404.61056,546.26019 1408.42805,547.840241 1410.38338,549.79592 L1830.75189,970.240535 C1832.70426,972.193265 1832.05794,973.776266 1829.28616,973.776266 L5.00081656,973.776266 C2.23894184,973.776266 1.56552448,972.174687 3.49496565,970.200812 L414.397176,549.835643 Z" id="Path-130" stroke-width="10" stroke-linecap="round" fill="#FFFFFF" sketch:type="MSShapeGroup"></path>
            <ellipse id="Oval-100" stroke-width="4" fill-opacity="0.800000012" fill="#A9C6E8" sketch:type="MSShapeGroup" cx="465.392389" cy="761.398373" rx="97.9061991" ry="97.9239243"></ellipse>
            <ellipse id="Oval-100-Copy" stroke-width="4" fill="#A9C6E8" sketch:type="MSShapeGroup" cx="911.972995" cy="761.398373" rx="97.9061991" ry="97.9239243"></ellipse>
            <ellipse id="Oval-100-Copy-2" stroke-width="4" fill="#A9C6E8" sketch:type="MSShapeGroup" cx="1343.94012" cy="761.398373" rx="97.9061991" ry="97.9239243"></ellipse>
            <g id="Oval-103-+-Path-131" transform="translate(420.367840, 0.577149)" stroke-width="10" sketch:type="MSShapeGroup">
                <g id="Oval-103" transform="translate(0.000000, 0.000000)" fill="#A9C6E8" stroke-linejoin="round">
                    <path d="M983.358667,499.577062 C983.358878,499.386732 983.358983,499.196378 983.358983,499.005998 C983.358983,224.242579 763.541908,1.50281885 492.383805,1.50281885 C221.225701,1.50281885 1.40862618,224.242579 1.40862618,499.005998 C1.40862618,499.196378 1.40873172,499.386732 1.40894272,499.577062 L983.358689,499.577062 Z"></path>
                </g>
                <path d="M94.0347018,364.350467 C94.0347018,364.350467 100.035648,348.811514 110.487378,327.025588 C116.488969,314.515676 125.078071,300.39454 133.790861,285.746913 C152.236035,254.73756 177.821696,224.216334 197.135561,204.329014 C217.201139,183.667662 249.652432,154.40163 282.719975,133.198356 C322.93488,107.412113 361.838184,91.0924503 361.838184,91.0924503" id="Path-131" stroke-linecap="round"></path>
            </g>
        </g>
        <g id="sheep_icon-copy" sketch:type="MSLayerGroup" transform="translate(635.902725, 1906.777423) rotate(-331.000000) translate(-635.902725, -1906.777423) translate(477.555487, 1796.017803)" fill="#3B3B3B">
            <path d="M258.817164,1.15567384 C260.557038,0.120862532 262.724801,0.462635074 264.637718,0.734787284 C269.36338,1.67149722 273.00044,5.24745067 275.753405,9.025936 C277.666322,7.82656754 279.692504,6.56707243 281.99241,6.36137599 C283.864426,6.31390758 285.421818,7.67783319 286.378277,9.17467035 C288.165344,12.0512559 288.769424,15.5670827 290.915163,18.2379718 C291.428001,18.899365 292.201978,19.2537958 292.944492,19.5797455 C295.990058,20.8740508 298.752461,22.7316479 301.4016,24.6905109 C302.537395,25.3962079 302.647514,26.8772222 303.065964,28.0322868 C304.56987,33.029128 304.028716,38.2886277 303.534755,43.3898993 C303.424636,45.9595225 303.207545,48.6399053 304.075909,51.105098 C305.397332,54.1240888 307.942645,56.3424458 309.569254,59.1652338 C313.316433,65.9057478 316.321098,73.3013259 316.582236,81.1177905 L316.582236,81.3962719 C316.358853,85.4089347 315.943548,89.7728637 313.240923,92.9564117 C311.016527,95.6336299 307.420368,96.4405929 304.129395,96.8266692 C301.77915,97.1557835 299.384857,97.2285684 297.025172,97.0703404 C291.009551,96.2000862 285.031684,95.0829964 279.016062,94.1874257 C277.946338,94.0228686 276.753911,94.0133749 275.869816,94.7159073 C274.639634,95.6051489 274.31557,97.2032519 274.180282,98.6241396 C273.966337,102.348827 274.598733,106.234908 273.198653,109.801368 C272.484455,111.712762 270.782336,112.962764 269.215506,114.13998 C265.779806,116.522894 261.93824,118.225428 258.389274,120.408975 C257.87329,120.772899 257.995994,121.510242 257.995994,122.057711 C258.231962,124.956448 259.040547,127.820376 258.791994,130.750759 C258.725923,132.640001 257.939361,134.510257 256.526697,135.772916 C254.11038,138.01659 252.01498,140.579884 250.020261,143.196975 C249.693051,143.646343 249.321794,144.092546 249.214822,144.655838 C248.384213,148.681159 248.003517,152.807746 246.8866,156.776105 C246.254204,158.804588 245.577762,161.016616 243.91969,162.450162 C241.928116,164.007126 239.338756,161.367882 237.318866,162.96915 C233.571688,165.760292 232.417015,170.60207 229.833948,174.304606 C228.358358,176.187519 226.360492,177.592584 224.154974,178.478661 C223.113567,192.307791 222.18857,206.140085 221.335938,219.981873 L205.082432,219.981873 C205.585832,211.174901 206.089231,202.364765 206.611508,193.554628 C207.250196,188.086267 206.306322,182.655881 205.629879,177.250812 C205.576393,176.098912 204.276993,175.007138 203.160076,175.532455 C199.897419,176.481824 196.455426,176.984989 193.079505,176.447013 C190.342271,175.728658 188.246871,173.671694 186.440926,171.595742 C180.887802,176.959672 172.830267,178.795117 165.323324,178.003977 C163.841443,175.706506 162.831498,172.848908 160.279892,171.519793 C158.584066,170.494475 156.51069,171.029286 154.840033,171.82992 C151.020491,173.595744 148.720585,177.541951 144.781486,179.124232 C141.320615,180.738158 137.359492,179.719169 134.052788,178.203345 C130.506969,176.494482 127.206557,174.27296 124.028849,171.953337 C122.392801,172.700174 121.395441,174.257137 120.495615,175.734987 C117.450049,176.105241 114.316388,177.155875 111.299138,176.060937 C106.42875,174.798277 103.040243,170.833083 98.9029299,168.238143 C96.1153562,170.326753 93.8437667,173.238149 90.4709912,174.431188 C88.2749117,175.190683 85.8523024,175.693848 83.5618355,175.086252 C80.9661828,174.513467 78.4995261,173.503972 75.9321895,172.855237 C75.0827032,172.608401 74.1765844,172.738148 73.3931692,173.114731 C68.884599,175.159037 66.4808672,180.171701 61.7898148,181.909045 C60.8239173,182.3774 59.8013874,182.045121 58.8449287,181.760311 C57.7563277,193.823616 56.3593946,205.867933 55.1984299,217.931238 C49.5005788,217.950225 43.7995815,217.924909 38.1017304,217.943896 C37.8563232,215.867945 37.1672954,213.791993 37.5102362,211.684395 C38.3597225,204.462868 39.5143947,197.28248 40.3418573,190.060953 C40.9113278,184.064111 37.7147421,178.516636 33.7473262,174.310935 C34.2318481,171.978654 33.5711364,169.557765 32.0861084,167.734978 C28.1847637,162.513453 21.5084302,160.323577 17.7832752,154.94066 C16.6600654,153.263443 15.5871956,150.965972 16.7513065,149.041919 C17.6479866,146.750777 19.7087776,144.671661 19.1707695,142.04824 C19.0449197,141.219125 18.651639,140.45963 18.0790223,139.861529 C14.7125393,136.102031 11.8777718,131.905823 9.11536806,127.696958 C7.84743101,125.829867 7.94496463,123.462776 7.73731241,121.304545 C7.29369176,117.52606 10.0403643,114.339347 10.2480165,110.658964 C9.63135236,108.554531 7.60517009,107.26339 6.49769158,105.42478 C3.98069496,101.038699 2.21565108,96.1209722 1.97339016,91.0228651 L1.97339016,89.6114711 C2.24396729,87.2348861 2.21879733,84.7475415 3.21930348,82.52602 C4.86164377,79.342472 8.14632436,77.3899382 9.74776346,74.1842383 C9.0492969,71.1209437 7.39751787,68.3835988 6.70849004,65.3266332 C6.4033042,60.6873874 8.0456445,55.9753567 11.1258191,52.5133275 C13.2149263,52.4025678 15.2757173,52.0164915 17.3176308,51.5766175 C19.3092044,51.1810475 20.7785011,49.5797798 21.8733947,47.9531957 C24.0852054,44.6462299 24.4910711,40.5133138 26.5266922,37.1240694 C27.3289848,35.7190045 28.4364633,34.4183701 29.9246376,33.7253313 C32.1018397,32.69052 34.3136504,31.7284936 36.5915324,30.940518 C37.7871058,30.5702644 39.0424578,30.1905171 40.3041024,30.4120364 C43.1168461,30.8360875 45.8761037,31.5544428 48.6888474,31.9943167 C50.6521047,32.272798 52.845038,31.725329 54.163315,30.1588715 C55.3557422,28.8170979 55.6829517,26.9848173 55.9692601,25.27279 C58.8826837,24.3044345 62.0383682,23.2284839 65.1153966,24.0417759 C69.4163145,25.0259543 73.6731851,26.1683607 77.986688,27.0797541 C80.3400799,25.9183604 81.4601433,23.2569649 83.8040964,22.0734193 C86.5853777,20.5512656 89.929837,21.0196206 92.8432605,21.8708874 C96.3985183,22.8898759 99.1074359,25.5670941 102.410994,27.1082351 C104.723485,25.7221576 106.513698,22.9436734 109.477462,23.0734204 C114.819787,24.4784853 119.202508,28.7791231 124.89092,28.9848196 C128.757656,28.9879841 130.488091,24.7000045 134.052788,23.94051 C136.393595,23.2189902 138.759571,24.3360801 140.672489,25.6493727 C143.016442,27.2854505 145.177913,29.162035 147.380285,30.9784927 C150.690135,29.0101361 154.462484,27.5449445 158.366975,27.7316536 C162.922739,28.5576039 167.324337,30.1177323 171.876954,30.9310243 C173.811895,30.8487457 174.919374,28.8772245 176.561714,28.0765907 C179.903027,26.5038041 183.599866,25.6873474 187.287266,25.6841829 C191.427726,26.2189936 195.288169,27.93735 199.305925,28.981655 C201.266036,28.4405151 202.876914,26.8962096 204.978606,26.8107664 C208.206654,26.7316524 211.444141,26.7917791 214.669043,26.78545 C215.930688,25.769626 217.088506,24.5417765 218.633313,23.9373454 C221.3674,22.766458 224.120365,21.2917728 227.137615,21.09557 C230.264983,21.3487349 233.35145,22.0037989 236.463088,22.3677234 C237.202455,17.934174 239.112227,13.8139162 241.122678,9.84239263 C245.027169,9.12403738 248.871881,8.00694749 252.637937,6.76327519 C254.959866,5.23162787 256.680863,2.93415689 258.817164,1.15567384 L258.817164,1.15567384 Z" id="Shape" sketch:type="MSShapeGroup"></path>
        </g>
        <g id="Group" sketch:type="MSLayerGroup" transform="translate(875.500000, 1107.619206)" stroke="#3B3B3B" stroke-width="10" stroke-dasharray="30">
            <path d="M5,0 L5,126.145301" id="Path-304-Copy-3" sketch:type="MSShapeGroup"></path>
            <path d="M120,0 L120,126.145301" id="Path-304-Copy-4" sketch:type="MSShapeGroup"></path>
            <path d="M235,0 L235,126.145301" id="Path-304-Copy-5" sketch:type="MSShapeGroup"></path>
            <path d="M349,0 L349,126.145301" id="Path-304-Copy-6" sketch:type="MSShapeGroup"></path>
            <path d="M463,0 L463,126.145301" id="Path-304-Copy-7" sketch:type="MSShapeGroup"></path>
            <path d="M577,0 L577,126.145301" id="Path-304-Copy-8" sketch:type="MSShapeGroup"></path>
        </g>
        <path d="M2171.50207,1648.16362 C1954.03951,1725.28651 1584.88386,1776.0233 1166.07213,1776.0233 C747.078925,1776.0233 377.784848,1725.24253 160.359594,1648.06335 L350.158248,1273.46204 C350.173443,1273.45873 350.188638,1273.45542 350.203834,1273.45211 L350.203834,1273.45211 L391.314503,1192.96592 L391.314503,1192.96592 L447.977059,1082.15437 L447.893633,1082.19568 L447.931784,1082.12099 L1887.9559,1081.61921 L1985.29284,1274.18463 L2171.50207,1648.16362 Z" id="Path-263-Copy-5" fill-opacity="0.5" fill="url(#linearGradient-1)" sketch:type="MSShapeGroup"></path>
    </g>
</svg>