<?xml version="1.0" encoding="UTF-8" standalone="no"?>
<svg width="2331px" height="2331px" viewBox="0 0 2331 2331" version="1.1" xmlns="http://www.w3.org/2000/svg" xmlns:xlink="http://www.w3.org/1999/xlink" xmlns:sketch="http://www.bohemiancoding.com/sketch/ns">
    <!-- Generator: Sketch 3.3.2 (12043) - http://www.bohemiancoding.com/sketch -->
    <title>step2</title>
    <desc>Created with Sketch.</desc>
    <defs></defs>
    <g id="Page-1" stroke="none" stroke-width="1" fill="none" fill-rule="evenodd" sketch:type="MSPage">
        <g id="projector_screen-+-Rectangle-23-+-getslid.es/name-Copy-3" sketch:type="MSLayerGroup" transform="translate(292.569167, 118.619206)">
            <g id="projector_screen-+-Rectangle-23" sketch:type="MSShapeGroup">
                <g id="projector_screen" stroke="#3B3B3B">
                    <path d="M146.26075,54.8380512 L1478.34615,54.8380512 L1478.3461,943.120946 C1478.3461,978.802283 1449.42149,1007.72772 1413.73119,1007.72772 L210.875655,1007.72772 C175.189829,1007.72772 146.26075,978.804645 146.26075,943.113683 C146.26075,943.113683 146.26075,306.690759 146.26075,54.8380512 Z" id="Rectangle-1" stroke-width="12.4248124" fill="#FFFFFF"></path>
                    <rect id="Rectangle-2" stroke-width="12.4248124" fill="#CDD4D6" x="0" y="0" width="1615" height="64.6138614" rx="64.6090243"></rect>
                    <rect id="Rectangle-3" stroke-width="9.93984989" fill="#3B3B3B" x="766.503846" y="997.787129" width="80.75" height="186.386139"></rect>
                    <rect id="Rectangle-4" stroke-width="9.93984989" fill="#3B3B3B" x="588.853846" y="1174.23267" width="436.05" height="80.7673267" rx="64.6090243"></rect>
                </g>
                <rect id="Rectangle-23" fill="#3B3B3B" x="776.442308" y="1172.9901" width="60.8730769" height="12.4257426"></rect>
            </g>
            <path d="M258.913472,603.67843 C258.913472,594.91061 263.777737,588.36487 273.506414,584.041014 C267.380951,581.758979 264.318265,577.73545 264.318265,571.970309 C264.318265,566.445381 267.320898,562.001484 273.326254,558.638485 C266.480149,553.113557 263.057147,545.546922 263.057147,535.938353 L263.057147,529.99308 C263.057147,521.22526 265.999727,514.078994 271.884976,508.554066 C277.770225,503.029139 285.517018,500.266716 295.125588,500.266716 C303.292872,500.266716 310.319033,502.60877 316.204282,507.292948 C319.807495,499.485985 323.891076,495.582562 328.455147,495.582562 C330.376861,495.582562 331.93823,496.153062 333.139301,497.29408 C334.340372,498.435098 334.940899,499.72623 334.940899,501.167515 C334.940899,502.969122 333.920004,504.350333 331.878183,505.31119 C327.794541,506.392154 324.551697,508.914366 322.149555,512.877901 C325.872875,517.321864 327.734508,523.026867 327.734508,529.99308 L327.734508,535.938353 C327.734508,544.586065 324.671822,551.732332 318.546359,557.377367 C312.420896,563.022401 304.61405,565.844876 295.125588,565.844876 C290.201196,565.844876 285.757299,564.944086 281.793764,563.142479 C278.791086,564.944086 277.28977,566.985877 277.28977,569.267912 C277.28977,571.549947 278.670981,573.321501 281.433444,574.582625 C284.195908,575.84375 287.61891,576.624435 291.702552,576.924703 C295.786194,577.22497 300.230091,577.795471 305.034376,578.63622 C309.83866,579.47697 314.282557,580.557918 318.366199,581.879096 C322.449841,583.200275 325.872843,585.542329 328.635307,588.905328 C331.39777,592.268327 332.778982,596.532066 332.778982,601.696672 C332.778982,610.224278 329.386006,616.739991 322.599954,621.244008 C315.813902,625.748025 307.016187,628 296.206546,628 C285.396906,628 276.479086,625.808078 269.452819,621.424168 C262.426553,617.040258 258.913472,611.125071 258.913472,603.67843 L258.913472,603.67843 Z M273.146095,602.056992 C273.146095,606.741169 275.217911,610.494461 279.361607,613.316978 C283.505303,616.139495 289.060174,617.550733 296.026387,617.550733 C302.752385,617.550733 308.127098,616.139495 312.150687,613.316978 C316.174275,610.494461 318.186039,606.741169 318.186039,602.056992 C318.186039,600.135278 317.85575,598.453803 317.195161,597.012518 C316.534571,595.571233 315.48365,594.370179 314.042364,593.409322 C312.601079,592.448465 311.159815,591.637755 309.71853,590.977165 C308.277244,590.316576 306.415612,589.776102 304.133577,589.355727 C301.851541,588.935352 299.959883,588.635089 298.458544,588.454928 C296.957205,588.274768 294.975467,588.064583 292.513271,587.824369 C290.051075,587.584155 288.339574,587.403997 287.378717,587.28389 C277.890255,590.406675 273.146095,595.330993 273.146095,602.056992 L273.146095,602.056992 Z M277.650089,535.758193 C277.650089,541.523335 279.241485,546.267495 282.424323,549.990816 C285.607162,553.714136 289.96098,555.575769 295.485907,555.575769 C300.770621,555.575769 305.034359,553.744163 308.277252,550.080895 C311.520144,546.417628 313.141566,541.703495 313.141566,535.938353 L313.141566,529.99308 C313.141566,524.468153 311.520144,519.844098 308.277252,516.120777 C305.034359,512.397456 300.710568,510.535824 295.305747,510.535824 C289.78082,510.535824 285.457028,512.36743 282.334243,516.030697 C279.211458,519.693964 277.650089,524.348045 277.650089,529.99308 L277.650089,535.758193 Z M344.669527,553.233692 L344.669527,534.316915 C344.669527,525.068667 348.182608,517.081663 355.208874,510.355664 C362.235141,503.629665 370.672539,500.266716 380.521323,500.266716 C389.889678,500.266716 397.996787,503.419481 404.842893,509.725105 C411.688999,516.030729 415.112001,523.927653 415.112001,533.416116 C415.112001,536.899222 414.691632,539.691671 413.850882,541.793546 C413.010132,543.89542 411.719,545.396737 409.977447,546.29754 C408.235894,547.198343 406.614472,547.768844 405.113133,548.009058 C403.611794,548.249272 401.60003,548.369378 399.07778,548.369378 L359.622789,548.369378 L359.622789,553.774171 C359.622789,560.380063 361.994869,565.664697 366.7391,569.628232 C371.483331,573.591766 377.638729,575.573504 385.205477,575.573504 C389.169012,575.573504 392.62204,574.972978 395.564665,573.771906 C398.507289,572.570835 400.879369,571.399808 402.680976,570.258791 C404.482583,569.117773 405.923847,568.547273 407.004811,568.547273 C408.68631,568.547273 410.127574,569.297931 411.328645,570.79927 C412.529717,572.300609 413.130243,573.831952 413.130243,575.393344 C413.130243,578.155808 410.397847,580.978283 404.932973,583.860854 C399.468099,586.743425 392.712175,588.184689 384.664998,588.184689 C372.8945,588.184689 363.286075,584.971872 355.839433,578.546141 C348.392792,572.12041 344.669527,563.683011 344.669527,553.233692 L344.669527,553.233692 Z M359.622789,538.28043 L392.952348,538.28043 C396.075133,538.28043 398.176976,537.890088 399.25794,537.109391 C400.338904,536.328695 400.879378,534.797352 400.879378,532.515317 C400.879378,527.110497 398.89764,522.366336 394.934105,518.282694 C390.97057,514.199052 386.106305,512.157262 380.341163,512.157262 C374.696129,512.157262 369.831863,514.048921 365.748221,517.832295 C361.664579,521.615669 359.622789,526.26975 359.622789,531.794678 L359.622789,538.28043 Z M431.326381,559.539284 L431.326381,466.756998 C431.326381,465.315712 432.107065,464.084633 433.668458,463.063722 C435.229851,462.042812 436.911325,461.532364 438.712932,461.532364 C440.634646,461.532364 442.376173,462.042812 443.937565,463.063722 C445.498958,464.084633 446.279643,465.315712 446.279643,466.756998 L446.279643,501.347675 L468.979775,501.347675 C470.300953,501.347675 471.381901,501.948202 472.222651,503.149273 C473.063401,504.350344 473.483769,505.731555 473.483769,507.292948 C473.483769,508.85434 473.063401,510.205525 472.222651,511.346543 C471.381901,512.487561 470.300953,513.058061 468.979775,513.058061 L446.279643,513.058061 L446.279643,559.539284 C446.279643,564.70389 447.390617,568.337076 449.612598,570.438951 C451.83458,572.540825 455.707977,573.591747 461.232904,573.591747 L466.817857,573.591747 C468.859678,573.591747 470.451074,574.2223 471.592091,575.483424 C472.733109,576.744549 473.303609,578.275892 473.303609,580.077499 C473.303609,581.879106 472.703083,583.440475 471.502012,584.761653 C470.30094,586.082831 468.739571,586.743411 466.817857,586.743411 L461.232904,586.743411 C441.295122,586.743411 431.326381,577.675459 431.326381,559.539284 L431.326381,559.539284 Z M482.311598,574.492546 C482.311598,572.931153 482.822046,571.39981 483.842956,569.898471 C484.863867,568.397132 486.094947,567.646474 487.536232,567.646474 C488.497089,567.646474 489.8783,568.367106 491.679907,569.808391 C493.481514,571.249677 496.063778,572.660914 499.426777,574.042146 C502.789777,575.423378 506.753252,576.113984 511.317323,576.113984 C517.322679,576.113984 521.676497,575.033036 524.378907,572.871108 C527.081317,570.709179 528.432502,568.00681 528.432502,564.763917 C528.432502,560.800383 526.931185,557.647618 523.928507,555.305529 C520.925829,552.96344 517.262617,551.191887 512.938761,549.990816 C508.614905,548.789744 504.291113,547.468586 499.967257,546.0273 C495.6434,544.586015 491.980188,542.183909 488.97751,538.820909 C485.974832,535.45791 484.473516,531.014013 484.473516,525.489086 C484.473516,518.64298 486.905648,512.727793 491.769987,507.743347 C496.634325,502.758902 504.050829,500.266716 514.01972,500.266716 C520.385397,500.266716 526.210505,501.257585 531.495218,503.239353 C536.779931,505.22112 539.422248,507.473095 539.422248,509.995345 C539.422248,511.43663 538.851748,513.058052 537.71073,514.859659 C536.569713,516.661265 535.158475,517.562055 533.476976,517.562055 C532.996547,517.562055 530.68452,516.691292 526.540824,514.949738 C522.397129,513.208185 518.283521,512.337422 514.199879,512.337422 C508.674952,512.337422 504.561345,513.628554 501.858934,516.210857 C499.156524,518.79316 497.805339,521.705714 497.805339,524.948606 C497.805339,528.311606 499.306656,530.953923 502.309334,532.875637 C505.312012,534.79735 509.00525,536.298667 513.38916,537.379631 C517.77307,538.460595 522.126888,539.781754 526.450744,541.343146 C530.774601,542.904539 534.437813,545.576882 537.440491,549.360256 C540.443169,553.143631 541.944485,558.037922 541.944485,564.043278 C541.944485,571.48992 539.302168,577.37508 534.017455,581.698937 C528.732742,586.022793 521.346265,588.184689 511.857802,588.184689 C503.690518,588.184689 496.72441,586.713399 490.959268,583.770774 C485.194126,580.82815 482.311598,577.735438 482.311598,574.492546 L482.311598,574.492546 Z M559.780303,581.338617 L559.780303,455.046612 C559.780303,453.485219 560.470909,452.224113 561.852141,451.263257 C563.233373,450.3024 565.004926,449.821978 567.166854,449.821978 C569.328783,449.821978 571.130362,450.3024 572.571648,451.263257 C574.012933,452.224113 574.733565,453.485219 574.733565,455.046612 L574.733565,581.338617 C574.733565,582.659795 573.982907,583.890875 572.481568,585.031893 C570.980229,586.17291 569.208675,586.743411 567.166854,586.743411 C565.125033,586.743411 563.383506,586.202937 561.942221,585.121973 C560.500935,584.041008 559.780303,582.779903 559.780303,581.338617 L559.780303,581.338617 Z M595.6321,469.279234 C595.6321,466.997199 596.532889,465.015461 598.334496,463.333962 C600.136103,461.652462 602.358051,460.811725 605.000408,460.811725 C607.522658,460.811725 609.684553,461.652462 611.48616,463.333962 C613.287767,465.015461 614.188557,466.997199 614.188557,469.279234 C614.188557,471.56127 613.287767,473.573034 611.48616,475.314587 C609.684553,477.05614 607.522658,477.926904 605.000408,477.926904 C602.478159,477.926904 600.286236,477.05614 598.424576,475.314587 C596.562916,473.573034 595.6321,471.56127 595.6321,469.279234 L595.6321,469.279234 Z M597.613857,581.338617 L597.613857,506.572309 C597.613857,505.010916 598.334489,503.74981 599.775774,502.788953 C601.21706,501.828096 602.958587,501.347675 605.000408,501.347675 C607.162336,501.347675 608.963916,501.828096 610.405201,502.788953 C611.846487,503.74981 612.567119,505.010916 612.567119,506.572309 L612.567119,581.338617 C612.567119,582.659795 611.816461,583.890875 610.315122,585.031893 C608.813783,586.17291 607.042229,586.743411 605.000408,586.743411 C602.958587,586.743411 601.21706,586.202937 599.775774,585.121973 C598.334489,584.041008 597.613857,582.779903 597.613857,581.338617 L597.613857,581.338617 Z M630.583097,553.233692 L630.583097,534.857394 C630.583097,525.368932 633.765888,517.231796 640.131565,510.445744 C646.497242,503.659692 654.063877,500.266716 662.831697,500.266716 C668.236518,500.266716 672.980678,501.587875 677.06432,504.230232 C681.147962,506.872588 684.2707,510.115432 686.432628,513.95886 L686.432628,455.046612 C686.432628,453.485219 687.15326,452.224113 688.594546,451.263257 C690.035831,450.3024 691.837411,449.821978 693.999339,449.821978 C696.161267,449.821978 697.932821,450.3024 699.314053,451.263257 C700.695284,452.224113 701.38589,453.485219 701.38589,455.046612 L701.38589,581.338617 C701.38589,582.779903 700.665258,584.041008 699.223973,585.121973 C697.782687,586.202937 696.04116,586.743411 693.999339,586.743411 C692.197732,586.743411 690.606337,586.202937 689.225105,585.121973 C687.843873,584.041008 687.153267,582.779903 687.153267,581.338617 L687.153267,574.132226 C685.111446,577.975654 681.80855,581.27855 677.24448,584.041014 C672.680409,586.803478 667.696038,588.184689 662.291218,588.184689 C653.883719,588.184689 646.497242,584.641582 640.131565,577.555262 C633.765888,570.468942 630.583097,562.361833 630.583097,553.233692 L630.583097,553.233692 Z M645.536358,553.233692 C645.536358,558.758619 647.578149,563.712963 651.661791,568.096873 C655.745433,572.480783 660.489593,574.672705 665.894413,574.672705 C671.179127,574.672705 675.923287,572.660941 680.127036,568.637353 C684.330785,564.613764 686.432628,561.100684 686.432628,558.098006 L686.432628,534.857394 C686.432628,528.611824 684.390838,523.537374 680.307196,519.633893 C676.223554,515.730411 671.479394,513.7787 666.074573,513.7787 C660.549646,513.7787 655.745433,515.940596 651.661791,520.264452 C647.578149,524.588308 645.536358,529.452574 645.536358,534.857394 L645.536358,553.233692 Z M718.861389,578.456061 C718.861389,575.813704 719.762178,573.561729 721.563785,571.700069 C723.365392,569.838409 725.58734,568.907592 728.229697,568.907592 C730.751947,568.907592 732.913842,569.838409 734.715449,571.700069 C736.517056,573.561729 737.417846,575.813704 737.417846,578.456061 C737.417846,580.97831 736.517056,583.170232 734.715449,585.031893 C732.913842,586.893553 730.751947,587.824369 728.229697,587.824369 C725.58734,587.824369 723.365392,586.893553 721.563785,585.031893 C719.762178,583.170232 718.861389,580.97831 718.861389,578.456061 L718.861389,578.456061 Z M751.290149,553.233692 L751.290149,534.316915 C751.290149,525.068667 754.803229,517.081663 761.829496,510.355664 C768.855762,503.629665 777.293161,500.266716 787.141945,500.266716 C796.5103,500.266716 804.617409,503.419481 811.463515,509.725105 C818.309621,516.030729 821.732623,523.927653 821.732623,533.416116 C821.732623,536.899222 821.312254,539.691671 820.471504,541.793546 C819.630754,543.89542 818.339622,545.396737 816.598069,546.29754 C814.856516,547.198343 813.235094,547.768844 811.733755,548.009058 C810.232416,548.249272 808.220652,548.369378 805.698402,548.369378 L766.243411,548.369378 L766.243411,553.774171 C766.243411,560.380063 768.615491,565.664697 773.359722,569.628232 C778.103953,573.591766 784.259351,575.573504 791.826099,575.573504 C795.789634,575.573504 799.242662,574.972978 802.185287,573.771906 C805.127911,572.570835 807.499991,571.399808 809.301598,570.258791 C811.103205,569.117773 812.544468,568.547273 813.625432,568.547273 C815.306932,568.547273 816.748196,569.297931 817.949267,570.79927 C819.150338,572.300609 819.750865,573.831952 819.750865,575.393344 C819.750865,578.155808 817.018469,580.978283 811.553595,583.860854 C806.088721,586.743425 799.332797,588.184689 791.28562,588.184689 C779.515122,588.184689 769.906697,584.971872 762.460055,578.546141 C755.013414,572.12041 751.290149,563.683011 751.290149,553.233692 L751.290149,553.233692 Z M766.243411,538.28043 L799.57297,538.28043 C802.695755,538.28043 804.797598,537.890088 805.878562,537.109391 C806.959526,536.328695 807.5,534.797352 807.5,532.515317 C807.5,527.110497 805.518262,522.366336 801.554727,518.282694 C797.591192,514.199052 792.726927,512.157262 786.961785,512.157262 C781.316751,512.157262 776.452485,514.048921 772.368843,517.832295 C768.285201,521.615669 766.243411,526.26975 766.243411,531.794678 L766.243411,538.28043 Z M833.082689,574.492546 C833.082689,572.931153 833.593136,571.39981 834.614047,569.898471 C835.634957,568.397132 836.866037,567.646474 838.307322,567.646474 C839.268179,567.646474 840.64939,568.367106 842.450997,569.808391 C844.252604,571.249677 846.834868,572.660914 850.197868,574.042146 C853.560867,575.423378 857.524343,576.113984 862.088413,576.113984 C868.093769,576.113984 872.447587,575.033036 875.149997,572.871108 C877.852407,570.709179 879.203592,568.00681 879.203592,564.763917 C879.203592,560.800383 877.702276,557.647618 874.699598,555.305529 C871.69692,552.96344 868.033707,551.191887 863.709851,549.990816 C859.385995,548.789744 855.062203,547.468586 850.738347,546.0273 C846.414491,544.586015 842.751278,542.183909 839.7486,538.820909 C836.745922,535.45791 835.244606,531.014013 835.244606,525.489086 C835.244606,518.64298 837.676739,512.727793 842.541077,507.743347 C847.405415,502.758902 854.821919,500.266716 864.79081,500.266716 C871.156487,500.266716 876.981595,501.257585 882.266308,503.239353 C887.551022,505.22112 890.193339,507.473095 890.193339,509.995345 C890.193339,511.43663 889.622838,513.058052 888.481821,514.859659 C887.340803,516.661265 885.929566,517.562055 884.248066,517.562055 C883.767638,517.562055 881.45561,516.691292 877.311914,514.949738 C873.168219,513.208185 869.054612,512.337422 864.97097,512.337422 C859.446042,512.337422 855.332435,513.628554 852.630025,516.210857 C849.927615,518.79316 848.57643,521.705714 848.57643,524.948606 C848.57643,528.311606 850.077746,530.953923 853.080424,532.875637 C856.083102,534.79735 859.776341,536.298667 864.160251,537.379631 C868.54416,538.460595 872.897978,539.781754 877.221835,541.343146 C881.545691,542.904539 885.208903,545.576882 888.211581,549.360256 C891.214259,553.143631 892.715576,558.037922 892.715576,564.043278 C892.715576,571.48992 890.073259,577.37508 884.788545,581.698937 C879.503832,586.022793 872.117355,588.184689 862.628892,588.184689 C854.461608,588.184689 847.4955,586.713399 841.730358,583.770774 C835.965216,580.82815 833.082689,577.735438 833.082689,574.492546 L833.082689,574.492546 Z M901.723565,586.743411 C901.723565,585.662446 901.903723,584.881762 902.264044,584.401333 L969.823961,450.722777 C970.664711,448.92117 972.105975,448.02038 974.147796,448.02038 C975.709188,448.02038 977.150452,448.590881 978.471631,449.731898 C979.792809,450.872916 980.453388,452.284154 980.453388,453.965653 C980.453388,454.806403 980.213177,455.64714 979.732749,456.48789 L912.533151,589.265647 C911.692401,591.187361 910.010927,592.148204 907.488678,592.148204 C905.807178,592.148204 904.425967,591.60773 903.345003,590.526766 C902.264039,589.445802 901.723565,588.184696 901.723565,586.743411 L901.723565,586.743411 Z M1049.3645,510.355664 C1055.67013,516.841449 1058.82289,524.408084 1058.82289,533.055796 L1058.82289,583.500535 C1058.82289,584.341284 1058.4926,585.091943 1057.83201,585.752532 C1057.17142,586.413121 1056.42077,586.743411 1055.58002,586.743411 C1054.73927,586.743411 1054.01863,586.413121 1053.4181,585.752532 C1052.81756,585.091943 1052.5173,584.341284 1052.5173,583.500535 L1052.5173,533.055796 C1052.5173,526.20969 1049.99509,520.144372 1044.95059,514.859659 C1039.90609,509.574945 1033.84077,506.932628 1026.75445,506.932628 C1019.78824,506.932628 1013.78297,509.574945 1008.73847,514.859659 C1003.69397,520.144372 1001.17176,526.20969 1001.17176,533.055796 L1001.17176,583.680694 C1001.17176,584.521444 1000.84147,585.242076 1000.18088,585.842612 C999.520295,586.443147 998.769637,586.743411 997.928887,586.743411 C997.088137,586.743411 996.367505,586.443147 995.766969,585.842612 C995.166434,585.242076 994.86617,584.521444 994.86617,583.680694 L994.86617,533.055796 C994.86617,524.408084 998.018935,516.841449 1004.32456,510.355664 C1010.63018,503.86988 1018.10674,500.627036 1026.75445,500.627036 C1035.52227,500.627036 1043.05888,503.86988 1049.3645,510.355664 Z M1102.2414,501.707995 C1113.29125,501.707995 1121.39836,504.620549 1126.56297,510.445744 C1131.72758,516.270939 1134.30984,523.987706 1134.30984,533.596276 L1134.30984,583.500535 C1134.30984,585.662463 1133.28894,586.743411 1131.24712,586.743411 C1130.40637,586.743411 1129.65572,586.443147 1128.99513,585.842612 C1128.33454,585.242076 1128.00425,584.461391 1128.00425,583.500535 L1128.00425,574.132226 C1120.07718,583.260367 1111.06928,587.824369 1100.98028,587.824369 C1093.53364,587.824369 1087.49835,585.812605 1082.87422,581.789017 C1078.2501,577.765428 1075.93807,571.850241 1075.93807,564.043278 C1075.93807,555.035244 1079.5112,548.819794 1086.65758,545.396741 C1093.80395,541.973688 1104.22309,540.262187 1117.9153,540.262187 L1128.00425,540.262187 L1128.00425,533.596276 C1128.00425,526.269741 1125.81233,520.174396 1121.42842,515.310058 C1117.04451,510.44572 1110.6489,508.013587 1102.2414,508.013587 L1085.48654,508.013587 C1084.64579,508.013587 1083.89513,507.683297 1083.23454,507.022708 C1082.57395,506.362119 1082.24366,505.611461 1082.24366,504.770711 C1082.24366,502.72889 1083.32461,501.707995 1085.48654,501.707995 L1102.2414,501.707995 Z M1128.00425,546.56778 L1118.09546,546.56778 C1112.69064,546.56778 1108.15666,546.747938 1104.4934,547.108259 C1100.83013,547.46858 1097.13689,548.219239 1093.41357,549.360256 C1089.69025,550.501274 1086.8978,552.302854 1085.03614,554.76505 C1083.17448,557.227246 1082.24366,560.319958 1082.24366,564.043278 C1082.24366,569.80842 1083.95516,574.162238 1087.37822,577.104862 C1090.80127,580.047487 1095.27519,581.518777 1100.80012,581.518777 C1107.28591,581.518777 1113.4413,579.236776 1119.2665,574.672705 C1125.09169,570.108635 1128.00425,565.784843 1128.00425,561.701201 L1128.00425,546.56778 Z M1214.48094,519.363653 C1217.48362,513.23819 1221.47712,508.584109 1226.46157,505.40127 C1231.44601,502.218432 1236.70062,500.627036 1242.22555,500.627036 C1250.27272,500.627036 1257.20881,503.569616 1263.034,509.454865 C1268.8592,515.340114 1271.77175,523.207012 1271.77175,533.055796 L1271.77175,583.500535 C1271.77175,584.341284 1271.44146,585.091943 1270.78087,585.752532 C1270.12028,586.413121 1269.36963,586.743411 1268.52888,586.743411 C1267.68813,586.743411 1266.96749,586.413121 1266.36696,585.752532 C1265.76642,585.091943 1265.46616,584.341284 1265.46616,583.500535 L1265.46616,533.055796 C1265.46616,524.888512 1263.09408,518.492904 1258.34985,513.86878 C1253.60562,509.244656 1248.1108,506.932628 1241.86523,506.932628 C1235.49955,506.932628 1229.88463,509.424814 1225.02029,514.409259 C1220.15595,519.393705 1217.72382,525.609155 1217.72382,533.055796 L1217.72382,583.680694 C1217.72382,585.722515 1216.64287,586.743411 1214.48094,586.743411 C1212.43912,586.743411 1211.41823,585.722515 1211.41823,583.680694 L1211.41823,533.055796 C1211.41823,525.609155 1208.95607,519.393705 1204.03167,514.409259 C1199.10728,509.424814 1193.40228,506.932628 1186.9165,506.932628 C1180.79103,506.932628 1175.38629,509.244656 1170.70212,513.86878 C1166.01794,518.492904 1163.67588,524.888512 1163.67588,533.055796 L1163.67588,583.680694 C1163.67588,584.521444 1163.34559,585.242076 1162.685,585.842612 C1162.02442,586.443147 1161.27376,586.743411 1160.43301,586.743411 C1159.59226,586.743411 1158.87163,586.443147 1158.27109,585.842612 C1157.67055,585.242076 1157.37029,584.521444 1157.37029,583.680694 L1157.37029,533.055796 C1157.37029,523.207012 1160.22279,515.340114 1165.92788,509.454865 C1171.63297,503.569616 1178.38889,500.627036 1186.19586,500.627036 C1191.72078,500.627036 1197.00542,502.218432 1202.04992,505.40127 C1207.09442,508.584109 1211.23805,513.23819 1214.48094,519.363653 L1214.48094,519.363653 Z M1324.19825,500.627036 C1332.84596,500.627036 1340.32252,503.719748 1346.62814,509.905265 C1352.93376,516.090781 1356.08653,523.807548 1356.08653,533.055796 C1356.08653,536.178581 1355.72621,538.700793 1355.00557,540.622507 C1354.28493,542.544221 1353.08387,543.925432 1351.40237,544.766182 C1349.72087,545.606932 1348.18953,546.117379 1346.8083,546.29754 C1345.42707,546.477701 1343.53541,546.56778 1341.13327,546.56778 L1298.4354,546.56778 L1298.4354,555.035289 C1298.4354,563.082466 1301.25787,569.508101 1306.90291,574.312386 C1312.54794,579.116671 1319.87437,581.518777 1328.8824,581.518777 C1333.32636,581.518777 1337.04963,580.888224 1340.05231,579.627099 C1343.05499,578.365974 1345.30696,577.134895 1346.8083,575.933824 C1348.30964,574.732753 1349.42061,574.132226 1350.14126,574.132226 C1350.98201,574.132226 1351.73266,574.492542 1352.39325,575.213185 C1353.05384,575.933827 1353.38413,576.654459 1353.38413,577.375102 C1353.38413,578.576173 1352.42329,579.987411 1350.50157,581.608857 C1348.57986,583.230303 1345.63728,584.671567 1341.67375,585.932692 C1337.71021,587.193816 1333.32637,587.824369 1328.52208,587.824369 C1317.83255,587.824369 1309.09489,584.79171 1302.30883,578.7263 C1295.52278,572.660891 1292.12981,564.763966 1292.12981,555.035289 L1292.12981,532.515317 C1292.12981,523.867604 1295.28257,516.391048 1301.58819,510.085424 C1307.89382,503.779801 1315.43043,500.627036 1324.19825,500.627036 L1324.19825,500.627036 Z M1298.4354,540.262187 L1338.97135,540.262187 C1343.41531,540.262187 1346.32787,539.841819 1347.7091,539.001069 C1349.09033,538.160319 1349.78094,536.358739 1349.78094,533.596276 C1349.78094,526.75017 1347.37883,520.594772 1342.57454,515.129898 C1337.77026,509.665024 1331.64489,506.932628 1324.19825,506.932628 C1316.99182,506.932628 1310.89647,509.484866 1305.91203,514.589419 C1300.92758,519.693972 1298.4354,525.669211 1298.4354,532.515317 L1298.4354,540.262187 Z" id="getslid.es/name" fill="#000000" sketch:type="MSShapeGroup"></path>
        </g>
        <g id="attendee_brown_hair-copy-3" sketch:type="MSLayerGroup" transform="translate(480.569167, 1625.619206)" stroke="#3B3B3B">
            <rect id="Rectangle-32" stroke-width="4.96992495" fill="#FFFFFF" sketch:type="MSShapeGroup" x="133.006944" y="312.173367" width="91.9861111" height="32.3366834"></rect>
            <rect id="Rectangle-32" stroke-width="7.45488742" fill="#FFFFFF" sketch:type="MSShapeGroup" x="28.5902778" y="338.291457" width="302.0625" height="156.708543"></rect>
            <path d="M135.63535,317.008026 L30.4564528,317.008026 L6.67576825,252.457114 L2.61439074,224.386273 C2.61439074,224.386273 -1.95810517,109.152686 2.61439074,83.4844449 C7.18688665,57.816204 35.7528284,38.3597745 35.7528284,38.3597745 L76.2381212,18.3091742 L123.210939,6.53424623 C123.210939,6.53424623 158.186789,0.605150631 179.003054,0.605150631 C199.921261,0.605150631 248.414356,6.53424623 248.414356,6.53424623 C248.414356,6.53424623 287.524961,14.8182204 308.687743,26.3845075 C329.850524,37.9507947 344.132188,58.8477818 344.132188,58.8477818 C344.132188,58.8477818 352.63111,75.4831804 355.949228,82.8016548 C359.267347,90.1201292 356.772597,193.502217 355.949228,211.763814 C355.12586,230.025411 348.508932,247.820934 348.508932,247.820934 L325.584007,315.705823 L135.63535,317.008026 Z" id="Path-30" stroke-width="7.45488742" fill="#998474" sketch:type="MSShapeGroup"></path>
            <path d="M36.045933,374.359296 L324.532907,374.359296" id="Line" stroke-width="7.45488742" stroke-linecap="square" sketch:type="MSShapeGroup"></path>
            <path d="M36.045933,415.40201 L324.532907,415.40201" id="Line-Copy" stroke-width="7.45488742" stroke-linecap="square" sketch:type="MSShapeGroup"></path>
            <path d="M36.045933,456.444724 L324.532907,456.444724" id="Line-Copy-2" stroke-width="7.45488742" stroke-linecap="square" sketch:type="MSShapeGroup"></path>
        </g>
        <g id="attendee_light_yellow_hair-+-Oval-9-Copy-3" sketch:type="MSLayerGroup" transform="translate(920.569167, 1566.619206)" stroke="#3B3B3B">
            <g id="attendee_light_yellow_hair" transform="translate(0.000000, 40.991031)" sketch:type="MSShapeGroup">
                <rect id="Rectangle-34" stroke-width="4.96992495" fill="#FFFFFF" x="104.222222" y="294.390135" width="124.074074" height="68.3183857"></rect>
                <ellipse id="Oval-6-Copy" stroke-width="6.21240618" fill="#F1E0CC" cx="169.981481" cy="169.553812" rx="115.388889" ry="169.553812"></ellipse>
                <path d="M31.0957813,147.622311 C36.1636732,148.103986 44.4895673,146.750845 49.183187,148.724114 C66.5616466,156.030283 63.799207,210.08453 56.5442085,225.046158 C52.0950233,234.221496 31.8686838,239.606659 24.6479663,230.530113 C23.0700027,228.54659 24.522934,226.133964 24.6479662,223.772746 C24.9675699,217.737072 27.3555077,211.157333 27.7516549,206.429413 C29.1952831,189.200065 30.4993651,172.32213 31.0957811,155.042584 L31.0957813,147.622311 Z" id="Path-34-Copy" stroke-width="4.96992495" fill="#FFFFFF" transform="translate(43.050710, 191.409166) scale(-1, 1) translate(-43.050710, -191.409166) "></path>
                <rect id="Rectangle-32-Copy" stroke-width="7.45488742" fill="#FFFFFF" x="0" y="356.497758" width="335" height="156.511211"></rect>
                <path d="M285.447633,147.622311 C290.515525,148.103986 298.841419,146.750845 303.535039,148.724114 C320.913498,156.030283 318.151059,210.08453 310.89606,225.046158 C306.446875,234.221496 286.220536,239.606659 278.999818,230.530113 C277.421855,228.54659 278.874786,226.133964 278.999818,223.772746 C279.319422,217.737072 281.70736,211.157333 282.103507,206.429413 C283.547135,189.200065 284.851217,172.32213 285.447633,155.042584 L285.447633,147.622311 Z" id="Path-34" stroke-width="4.96992495" fill="#FFFFFF"></path>
            </g>
            <ellipse id="Oval-9" stroke-width="6.21240618" fill="#F1E0CC" sketch:type="MSShapeGroup" cx="171.842593" cy="37.8856502" rx="62.6574074" ry="37.8856502"></ellipse>
        </g>
        <g id="attendee_orange-copy-3" sketch:type="MSLayerGroup" transform="translate(1367.569167, 1569.619206)">
            <g id="attendee_orange" stroke="#3B3B3B" sketch:type="MSShapeGroup">
                <rect id="Rectangle-37" stroke-width="4.96992495" fill="#FFFFFF" x="124.125874" y="342.042889" width="91.8531469" height="57.214447"></rect>
                <path d="M299.143083,229.145834 C298.998443,305.262355 241.535886,366.918736 170.673077,366.918736 C99.7209006,366.918736 42.2027972,305.106744 42.2027972,228.857788 C42.2027972,226.330333 42.2659952,223.818741 42.3907857,221.324737 C30.4723401,218.683302 20.5162566,214.348984 15.171899,206.533783 C8.95883447,197.448248 18.7524997,169.478874 21.253018,159.657278 C25.6510724,142.382495 6.69612534,127.39337 11.7112935,108.117353 C16.7625656,88.7025687 34.5142274,88.5177781 45.7095543,74.8484566 C50.1597512,69.4148348 49.4230684,61.0920744 53.0921793,55.1010779 C55.2432202,51.5888159 56.9627376,46.3169651 60.4366175,44.1113557 C85.329454,28.3065859 83.5272717,29.7799874 82.0673921,31.4204859 C80.2667121,33.4439492 87.3608363,31.5768313 95.5931889,31.4204859 C99.4292095,31.3476338 95.2599923,34.7376613 110.789621,29.4610542 C114.058905,28.3502275 114.157515,27.2744716 115.276475,24.0020654 C118.608533,14.2574338 144.834553,3.13442954 150.660569,1.81376663 C164.181065,-1.25110974 216.077042,0.662158557 226.391345,11.6204941 C231.442098,16.9866197 230.605352,26.6892296 236.252877,31.4204857 C243.735173,37.6888353 279.700906,35.3395306 283.866035,36.4059574 C294.025794,39.0072313 308.525237,58.4855114 309.390188,68.4233043 C309.76155,72.690047 305.957568,78.2401272 308.98287,81.2656372 C313.66499,85.9480785 322.291685,83.6319902 327.980401,87.0147933 C343.165189,96.0444499 333.50152,107.021764 338.639066,121.736125 C341.753391,130.655811 353.068847,126.373333 354.73287,144.887399 C356.985565,169.951081 342.44022,150.21611 341.327996,167.101207 C339.148626,200.187061 355.231102,207.358174 326.136336,219.344232 C319.139058,222.226874 311.683751,226.817208 299.143083,229.145834 Z" id="Oval-9" stroke-width="6.21240618" fill="#EE882A"></path>
                <rect id="Rectangle-32-Copy-2" stroke-width="7.45488742" fill="#4A7DBB" x="0" y="394.282167" width="343.828671" height="156.717833"></rect>
            </g>
            <path d="M7.44755245,415.001175 C7.65308078,414.990496 7.8600013,414.98509 8.06818182,414.98509 C14.5807004,414.98509 19.8601399,420.275306 19.8601399,426.801117 C19.8601399,433.326929 14.5807004,438.617144 8.06818182,438.617144 C7.8600013,438.617144 7.65308078,438.611739 7.44755245,438.60106 L7.44755245,415.001175 Z" id="Oval-10" fill="#FFFFFF" sketch:type="MSShapeGroup"></path>
            <path d="M323.968531,415.001175 C324.17406,414.990496 324.38098,414.98509 324.589161,414.98509 C331.101679,414.98509 336.381119,420.275306 336.381119,426.801117 C336.381119,433.326929 331.101679,438.617144 324.589161,438.617144 C324.38098,438.617144 324.17406,438.611739 323.968531,438.60106 L323.968531,415.001175 Z" id="Oval-10-Copy-5" fill="#FFFFFF" sketch:type="MSShapeGroup" transform="translate(330.174825, 426.801117) scale(-1, 1) translate(-330.174825, -426.801117) "></path>
            <ellipse id="Oval-10-Copy" fill="#FFFFFF" sketch:type="MSShapeGroup" cx="63.9248252" cy="426.801117" rx="11.791958" ry="11.8160271"></ellipse>
            <ellipse id="Oval-10-Copy-3" fill="#FFFFFF" sketch:type="MSShapeGroup" cx="119.781469" cy="426.801117" rx="11.791958" ry="11.8160271"></ellipse>
            <ellipse id="Oval-10-Copy-8" fill="#FFFFFF" sketch:type="MSShapeGroup" cx="36.9274476" cy="472.821433" rx="11.791958" ry="11.8160271"></ellipse>
            <ellipse id="Oval-10-Copy-7" fill="#FFFFFF" sketch:type="MSShapeGroup" cx="92.7840909" cy="472.821433" rx="11.791958" ry="11.8160271"></ellipse>
            <ellipse id="Oval-10-Copy-10" fill="#FFFFFF" sketch:type="MSShapeGroup" cx="150.502622" cy="472.821433" rx="11.791958" ry="11.8160271"></ellipse>
            <ellipse id="Oval-10-Copy-9" fill="#FFFFFF" sketch:type="MSShapeGroup" cx="206.359266" cy="472.821433" rx="11.791958" ry="11.8160271"></ellipse>
            <ellipse id="Oval-10-Copy-12" fill="#FFFFFF" sketch:type="MSShapeGroup" cx="262.215909" cy="472.821433" rx="11.791958" ry="11.8160271"></ellipse>
            <ellipse id="Oval-10-Copy-11" fill="#FFFFFF" sketch:type="MSShapeGroup" cx="318.072552" cy="472.821433" rx="11.791958" ry="11.8160271"></ellipse>
            <ellipse id="Oval-10-Copy-2" fill="#FFFFFF" sketch:type="MSShapeGroup" cx="177.5" cy="426.801117" rx="11.791958" ry="11.8160271"></ellipse>
            <ellipse id="Oval-10-Copy-4" fill="#FFFFFF" sketch:type="MSShapeGroup" cx="233.356643" cy="426.801117" rx="11.791958" ry="11.8160271"></ellipse>
            <ellipse id="Oval-10-Copy-6" fill="#FFFFFF" sketch:type="MSShapeGroup" cx="289.213287" cy="426.801117" rx="11.791958" ry="11.8160271"></ellipse>
            <path d="M7.44755245,507.041807 C7.65308078,507.031128 7.8600013,507.025722 8.06818182,507.025722 C14.5807004,507.025722 19.8601399,512.315938 19.8601399,518.841749 C19.8601399,525.367561 14.5807004,530.657777 8.06818182,530.657777 C7.8600013,530.657777 7.65308078,530.652371 7.44755245,530.641692 L7.44755245,507.041807 Z" id="Oval-10-Copy-19" fill="#FFFFFF" sketch:type="MSShapeGroup"></path>
            <path d="M323.968531,507.041807 C324.17406,507.031128 324.38098,507.025722 324.589161,507.025722 C331.101679,507.025722 336.381119,512.315938 336.381119,518.841749 C336.381119,525.367561 331.101679,530.657777 324.589161,530.657777 C324.38098,530.657777 324.17406,530.652371 323.968531,530.641692 L323.968531,507.041807 Z" id="Oval-10-Copy-13" fill="#FFFFFF" sketch:type="MSShapeGroup" transform="translate(330.174825, 518.841749) scale(-1, 1) translate(-330.174825, -518.841749) "></path>
            <ellipse id="Oval-10-Copy-14" fill="#FFFFFF" sketch:type="MSShapeGroup" cx="63.9248252" cy="518.841749" rx="11.791958" ry="11.8160271"></ellipse>
            <ellipse id="Oval-10-Copy-15" fill="#FFFFFF" sketch:type="MSShapeGroup" cx="119.781469" cy="518.841749" rx="11.791958" ry="11.8160271"></ellipse>
            <ellipse id="Oval-10-Copy-16" fill="#FFFFFF" sketch:type="MSShapeGroup" cx="177.5" cy="518.841749" rx="11.791958" ry="11.8160271"></ellipse>
            <ellipse id="Oval-10-Copy-17" fill="#FFFFFF" sketch:type="MSShapeGroup" cx="233.356643" cy="518.841749" rx="11.791958" ry="11.8160271"></ellipse>
            <ellipse id="Oval-10-Copy-18" fill="#FFFFFF" sketch:type="MSShapeGroup" cx="289.213287" cy="518.841749" rx="11.791958" ry="11.8160271"></ellipse>
        </g>
        <path d="M1829.56917,1744.61921 L1829.56917,1687.61921 L1879.56917,1716.11921 L1829.56917,1744.61921 Z" id="Triangle-2-Copy-3" fill="#3B3B3B" sketch:type="MSShapeGroup" transform="translate(1854.569167, 1716.119206) rotate(251.000000) translate(-1854.569167, -1716.119206) "></path>
        <path d="M1860.79596,1715.61921 C2168.79083,1366.24457 1827.56917,909.619206 1827.56917,909.619206" id="Path-59" stroke="#3B3B3B" stroke-width="12.4248124" stroke-dasharray="30" sketch:type="MSShapeGroup"></path>
        <path d="M314.569167,961.619206 L314.569167,904.619206 L364.569167,933.119206 L314.569167,961.619206 Z" id="Triangle-2-Copy-4" fill="#3B3B3B" sketch:type="MSShapeGroup" transform="translate(339.569167, 933.119206) scale(-1, -1) rotate(10.000000) translate(-339.569167, -933.119206) "></path>
        <path d="M245.795962,1744.61921 C553.790827,1395.24457 212.569167,938.619206 212.569167,938.619206" id="Path-59-Copy" stroke="#3B3B3B" stroke-width="12.4248124" stroke-dasharray="30" sketch:type="MSShapeGroup" transform="translate(293.569167, 1341.619206) scale(-1, -1) translate(-293.569167, -1341.619206) "></path>
        <g id="iPhone-Copy-+-Rectangle-19-Copy-2" sketch:type="MSLayerGroup" transform="translate(132.569167, 1145.619206)">
            <g id="iPhone-Copy" sketch:type="MSShapeGroup">
                <path d="M176,349.204477 C176,359.587224 167.607849,368 157.260288,368 L18.7353574,368 C8.38779601,368 0,359.587224 0,349.204477 L0,18.7998908 C0,8.41714442 8.38779601,0 18.7353574,0 L157.260288,0 C167.607849,0 176,8.41714442 176,18.7998908 L176,349.204477 L176,349.204477 Z" id="Shape" stroke="#3B3B3B" stroke-width="2.98195497" fill="#CDD4D6"></path>
                <path d="M72.3389831,35.757085 C72.3389831,37.8097637 73.842493,39.4817814 75.7033589,39.4817814 L98.8007577,39.4817814 C100.665982,39.4817814 102.169492,37.8097637 102.169492,35.757085 L102.169492,35.757085 C102.169492,33.6995878 100.665982,32.0323887 98.8007577,32.0323887 L75.7033589,32.0323887 C73.842493,32.0323887 72.3389831,33.6995878 72.3389831,35.757085 L72.3389831,35.757085 L72.3389831,35.757085 Z" id="Shape" fill="#3B3B3B"></path>
                <ellipse id="Oval" fill="#3B3B3B" cx="86.3025399" cy="17.6676009" rx="3.59079002" ry="3.61123028"></ellipse>
                <rect id="Rectangle" stroke="#3B3B3B" stroke-width="2.98195497" fill="#FFFFFF" x="10.440678" y="53.6356275" width="153.627119" height="260.728745"></rect>
                <ellipse id="Oval" stroke="#3B3B3B" stroke-width="2.98195497" fill="#FFFFFF" cx="87.2542373" cy="341.182186" rx="15.6610169" ry="15.6437247"></ellipse>
            </g>
            <rect id="Rectangle-19-Copy-2" fill="#A9C6E8" sketch:type="MSShapeGroup" x="27.2676056" y="116.864865" width="121.464789" height="136.756757"></rect>
        </g>
        <g id="envelope" sketch:type="MSLayerGroup" transform="translate(1788.569167, 1192.619206)" stroke-width="9.93984989">
            <rect id="Rectangle-79" stroke="#3B3B3B" fill="#FFFFFF" sketch:type="MSShapeGroup" x="0" y="0" width="406" height="278" rx="36.0319559"></rect>
            <path d="M53.6794745,55.333094 C53.6794745,55.333094 165.649115,183.79394 201.667113,183.793937 C237.685111,183.793934 351.811407,54.4289407 351.811407,54.4289407" id="Path-64" stroke="#4A7DBB" sketch:type="MSShapeGroup"></path>
            <path d="M265.445747,142.371368 L351.811407,222.781609" id="Path-65" stroke="#4A7DBB" sketch:type="MSShapeGroup"></path>
            <path d="M141.28673,144.853511 L56.7627044,223.445386" id="Path-66" stroke="#4A7DBB" sketch:type="MSShapeGroup"></path>
        </g>
    </g>
</svg>