<?xml version="1.0" encoding="UTF-8" standalone="no"?>
<svg width="465px" height="466px" viewBox="0 0 465 466" version="1.1" xmlns="http://www.w3.org/2000/svg" xmlns:xlink="http://www.w3.org/1999/xlink" xmlns:sketch="http://www.bohemiancoding.com/sketch/ns">
    <!-- Generator: Sketch 3.3.2 (12043) - http://www.bohemiancoding.com/sketch -->
    <title>more-than-slides</title>
    <desc>Created with Sketch.</desc>
    <defs></defs>
    <g id="Page-1" stroke="none" stroke-width="1" fill="none" fill-rule="evenodd" sketch:type="MSPage">
        <g id="resources-only---curved-arrows" sketch:type="MSArtboardGroup" transform="translate(-994.000000, -548.000000)">
            <g id="Group" sketch:type="MSLayerGroup" transform="translate(1002.000000, 566.000000)">
                <g id="LastSlide-logo-+-Oval-1-Copy-2" transform="translate(172.000000, 188.000000)" sketch:type="MSShapeGroup">
                    <g id="LastSlide-logo" transform="translate(18.000000, 32.000000)">
                        <path d="M6.12,2.92134275 L62.2200025,2.92134275 L62.2200002,40.0246833 C62.2200001,41.5278143 60.996099,42.7463428 59.4952216,42.7463428 L8.84477843,42.7463428 C7.33992486,42.7463428 6.12,41.5240144 6.12,40.0273301 C6.12,40.0273301 6.12,13.4472561 6.12,2.92134275 Z" id="Rectangle-1-Copy-13" stroke="#979797" stroke-width="0.5" fill-opacity="0.45739923" fill="#5C54A0"></path>
                        <rect id="Rectangle-2-Copy-13" fill="#000000" x="0" y="0.221342754" width="68" height="2.7" rx="2.72"></rect>
                        <rect id="Rectangle-3-Copy-6" fill="#000000" x="32.3" y="42.7463428" width="3.4" height="7.7625"></rect>
                        <rect id="Rectangle-4-Copy-6" fill="#000000" x="24.82" y="50.5088428" width="18.36" height="3.375" rx="2.72"></rect>
                        <path d="M6.51120275,3.05137687 L62.2200025,39.7614355 L62.2199999,2.92134275 L6.51120275,3.05137687 Z" id="Path-19-Copy-13" fill="#225079"></path>
                    </g>
                    <circle id="Oval-1" stroke="#786DD1" stroke-width="2" cx="52.5" cy="53" r="52.5"></circle>
                </g>
                <g id="Oval-1-Copy-+-video-icon-Copy-Copy" transform="translate(343.016622, 115.152071)" sketch:type="MSShapeGroup">
                    <circle id="Oval-1-Copy" stroke="#3A8FDA" stroke-width="2" cx="52.5" cy="52.5" r="52.5"></circle>
                    <g id="video-icon" transform="translate(16.000000, 26.000000)">
                        <rect id="Rectangle-12" stroke="#3B3B3B" stroke-width="1.2" fill="#4A7DBB" x="0" y="0" width="73" height="53.8902439"></rect>
                        <rect id="Rectangle-13" stroke="#3B3B3B" stroke-width="1.2" fill="#D8D8D8" x="0" y="42.2053043" width="73" height="11.6849396"></rect>
                        <rect id="Rectangle-16" fill="#3B3B3B" x="16.4726841" y="48.1349751" width="49.7648456" height="0.872010419"></rect>
                        <rect id="Rectangle-17" stroke="#3B3B3B" stroke-width="0.5" fill="#FFFFFF" x="53.6662708" y="45.3445418" width="3.64133017" height="5.4064646"></rect>
                        <rect id="Rectangle-14" fill="#3B3B3B" x="6.76247031" y="45.5189439" width="1.3871734" height="5.23206251"></rect>
                        <rect id="Rectangle-14-Copy" fill="#3B3B3B" x="8.49643705" y="45.5189439" width="1.3871734" height="5.23206251"></rect>
                        <path d="M30.5178147,31.0435709 L30.5178147,11.8593417 L46.8171021,21.4514563 L30.5178147,31.0435709 Z" id="Triangle-2" stroke="#3B3B3B" stroke-width="1.2" fill="#FFFFFF"></path>
                    </g>
                </g>
                <g id="Oval-1-Copy-2-+-ppt-icon-Copy-Copy" transform="translate(172.133698, 0.500000)" sketch:type="MSShapeGroup">
                    <circle id="Oval-1-Copy-2" stroke="#3A8FDA" stroke-width="2" cx="52.5" cy="52.5" r="52.5"></circle>
                    <g id="ppt-icon" transform="translate(20.000000, 17.000000)">
                        <path d="M42.7077659,2 L4.89855072,2 L4.89855072,69 L60.2898551,69 L60.2898551,19.0677507 L60.2898551,19.0677507 L60.2702391,19.0677507 L60.2758498,19.4400282 L43.0173934,2.18157182 L42.5797101,2.18157182 L42.5797101,2 L42.7077659,2 Z M58.0321921,2 L55.962935,2 L60.0140264,2.06771386 L60.0157423,2.18157182 L60.1014493,2.18157182 L60.1014493,7.86833438 L60.0157423,2.18157182 Z" id="Rectangle-7" stroke="#3B3B3B" stroke-width="0.9234" fill="#FFFFFF"></path>
                        <rect id="Rectangle-133" fill="#FFFFFF" x="54" y="0" width="9" height="9"></rect>
                        <path d="M42.6636364,3.08841662 L42.6636364,19.3410642" id="Line" stroke="#3B3B3B" stroke-width="0.9234" stroke-linecap="square"></path>
                        <path d="M59.3478261,19.6315789 L42.3913043,19.6315789" id="Line" stroke="#3B3B3B" stroke-width="0.9234" stroke-linecap="square"></path>
                        <rect id="Rectangle-10" stroke="#3B3B3B" stroke-width="0.9234" fill="#4A7DBB" x="0" y="30.5067751" width="65" height="27.7804878"></rect>
                        <path d="M12.5338601,47.8018519 C12.5338601,47.2328952 12.3281203,46.7943311 11.9166345,46.4861462 C11.5051487,46.1779614 10.7629614,45.8668179 9.69005028,45.5527064 C8.61713916,45.2385949 7.76369994,44.8889289 7.12970701,44.5036978 C5.91658591,43.7628688 5.31003447,42.7968424 5.31003447,41.6055894 C5.31003447,40.5625022 5.74742207,39.7031535 6.62221039,39.0275174 C7.49699872,38.3518814 8.63237769,38.0140685 10.0283814,38.0140685 C10.9549864,38.0140685 11.7809937,38.1800117 12.5064279,38.5119031 C13.2318621,38.8437944 13.8018376,39.3164362 14.2163714,39.9298426 C14.6309053,40.543249 14.8381691,41.2233198 14.8381691,41.9700754 L12.5338601,41.9700754 C12.5338601,41.2944394 12.3159283,40.7654954 11.8800582,40.3832277 C11.444188,40.0009599 10.8208726,39.8098289 10.0100932,39.8098289 C9.25417854,39.8098289 8.66743907,39.9668823 8.24985719,40.2809938 C7.83227531,40.5951053 7.6234875,41.0336694 7.6234875,41.5966995 C7.6234875,42.07083 7.84903929,42.4664267 8.30014965,42.7835015 C8.75126,43.1005763 9.49497133,43.4087566 10.5313059,43.7080515 C11.5676405,44.0073464 12.3997438,44.3481226 13.0276406,44.7303903 C13.6555375,45.1126581 14.1157851,45.5512223 14.4083972,46.046096 C14.7010093,46.5409698 14.8473132,47.1202893 14.8473132,47.7840721 C14.8473132,48.8627191 14.4221176,49.7205861 13.5717136,50.3576991 C12.7213096,50.994812 11.5676426,51.3133637 10.1106781,51.3133637 C9.14749653,51.3133637 8.26205334,51.1400123 7.45432196,50.7933043 C6.64659058,50.4465964 6.01870315,49.968028 5.57064083,49.357585 C5.12257852,48.7471419 4.89855072,48.0359567 4.89855072,47.2240082 L7.21200376,47.2240082 C7.21200376,47.9589105 7.46193953,48.5278586 7.96181857,48.9308696 C8.46169762,49.3338806 9.17797696,49.535383 10.1106781,49.535383 C10.9153614,49.535383 11.5203889,49.376848 11.9257786,49.0597732 C12.3311683,48.7426984 12.5338601,48.3233955 12.5338601,47.8018519 L12.5338601,47.8018519 Z M19.0261592,51.1355656 L16.804147,51.1355656 L16.804147,37.4806743 L19.0261592,37.4806743 L19.0261592,51.1355656 Z M23.8085146,51.1355656 L21.5865024,51.1355656 L21.5865024,41.5166903 L23.8085146,41.5166903 L23.8085146,51.1355656 Z M21.4493412,39.0186275 C21.4493412,38.6867362 21.5575451,38.4111519 21.7739561,38.1918665 C21.9903672,37.9725812 22.2997389,37.8629401 22.7020806,37.8629401 C23.1044222,37.8629401 23.415318,37.9725812 23.634777,38.1918665 C23.8542361,38.4111519 23.963964,38.6867362 23.963964,39.0186275 C23.963964,39.3445923 23.8542361,39.6157316 23.634777,39.8320537 C23.415318,40.0483757 23.1044222,40.1565351 22.7020806,40.1565351 C22.2997389,40.1565351 21.9903672,40.0483757 21.7739561,39.8320537 C21.5575451,39.6157316 21.4493412,39.3445923 21.4493412,39.0186275 L21.4493412,39.0186275 Z M25.8110688,46.2550087 C25.8110688,44.7733508 26.1646365,43.5835973 26.8717825,42.6857126 C27.5789284,41.7878279 28.5268556,41.3388923 29.7155923,41.3388923 C30.7641191,41.3388923 31.6114623,41.6944848 32.2576474,42.4056807 L32.2576474,37.4806743 L34.4796596,37.4806743 L34.4796596,51.1355656 L32.4679613,51.1355656 L32.3582324,50.1398964 C31.693759,50.9222118 30.8067918,51.3133637 29.6973042,51.3133637 C28.5390478,51.3133637 27.6017887,50.8599831 26.8854986,49.9532085 C26.1692085,49.0464338 25.8110688,47.8137129 25.8110688,46.2550087 L25.8110688,46.2550087 Z M28.033081,46.4416967 C28.033081,47.4195909 28.2266289,48.1826333 28.6137303,48.7308468 C29.0008318,49.2790602 29.5509953,49.5531628 30.2642373,49.5531628 C31.1725541,49.5531628 31.8370175,49.1590477 32.2576474,48.3708057 L32.2576474,44.2636704 C31.8492097,43.4932083 31.1908423,43.107983 30.2825255,43.107983 C29.5631873,43.107983 29.0084519,43.3850489 28.6183024,43.939189 C28.2281529,44.493329 28.033081,45.3274899 28.033081,46.4416967 L28.033081,46.4416967 Z M41.1548403,51.3133637 C39.7466445,51.3133637 38.6051695,50.8822077 37.7303812,50.0198827 C36.8555929,49.1575578 36.4182053,48.0092901 36.4182053,46.5750453 L36.4182053,46.3083482 C36.4182053,45.3482338 36.6087051,44.4903667 36.9897105,43.7347212 C37.3707158,42.9790756 37.9056393,42.3908663 38.594497,41.9700754 C39.2833548,41.5492845 40.0514501,41.3388923 40.898806,41.3388923 C42.246041,41.3388923 43.286932,41.7567135 44.0215104,42.5923686 C44.7560887,43.4280237 45.1233724,44.610369 45.1233724,46.13944 L45.1233724,47.0106505 L38.6585056,47.0106505 C38.7255626,47.8048192 38.9983583,48.4330327 39.4769011,48.89531 C39.9554438,49.3575873 40.5574233,49.5887224 41.2828575,49.5887224 C42.3009038,49.5887224 43.1299591,49.1886808 43.7700481,48.3885855 L44.967923,49.4998234 C44.5716774,50.0747067 44.0428499,50.520679 43.3814246,50.8377538 C42.7199992,51.1548286 41.9778119,51.3133637 41.1548403,51.3133637 L41.1548403,51.3133637 Z M40.8896619,43.0724234 C40.2800533,43.0724234 39.7878018,43.2798524 39.4128925,43.6947166 C39.0379832,44.1095808 38.7987154,44.6874188 38.695082,45.4282477 L42.9287924,45.4282477 L42.9287924,45.2682295 C42.8800238,44.5451804 42.6819039,43.9984568 42.334427,43.6280423 C41.9869501,43.2576279 41.5053666,43.0724234 40.8896619,43.0724234 L40.8896619,43.0724234 Z M52.3929185,48.5219341 C52.3929185,48.136703 52.2298506,47.8433391 51.90371,47.6418336 C51.5775694,47.4403282 51.0365499,47.2625319 50.2806353,47.1084394 C49.5247206,46.954347 48.8937852,46.7587711 48.3878101,46.5217058 C47.2783224,46.0001622 46.7235869,45.244528 46.7235869,44.2547805 C46.7235869,43.4250521 47.0832506,42.7316466 47.8025888,42.1745432 C48.5219269,41.6174398 49.4363261,41.3388923 50.5458137,41.3388923 C51.7284544,41.3388923 52.6840015,41.6233663 53.4124837,42.192323 C54.140966,42.7612796 54.5052017,43.4991342 54.5052017,44.4059089 L52.2831895,44.4059089 C52.2831895,43.9910447 52.1246936,43.6458235 51.8076972,43.3702352 C51.4907007,43.0946468 51.0700771,42.9568547 50.5458137,42.9568547 C50.0581268,42.9568547 49.6603632,43.0664957 49.3525108,43.2857811 C49.0446585,43.5050664 48.8907346,43.7984303 48.8907346,44.1658815 C48.8907346,44.4977729 49.0339905,44.7555775 49.3205066,44.9393031 C49.6070226,45.1230286 50.1861421,45.3082331 51.0578823,45.494922 C51.9296226,45.6816109 52.613898,45.9038563 53.110729,46.1616648 C53.60756,46.4194732 53.9763677,46.7291351 54.2171631,47.0906596 C54.4579585,47.4521842 54.5783543,47.8907483 54.5783543,48.4063653 C54.5783543,49.2716535 54.2095467,49.9724672 53.4719203,50.5088274 C52.7342939,51.0451876 51.7680788,51.3133637 50.5732459,51.3133637 C49.7624665,51.3133637 49.0400912,51.1711266 48.4060982,50.8866483 C47.7721053,50.60217 47.2783298,50.2110181 46.9247568,49.7131811 C46.5711838,49.215344 46.3944,48.6789919 46.3944,48.1041086 L48.5524036,48.1041086 C48.582884,48.6137989 48.7810038,49.0064324 49.146769,49.2820208 C49.5125341,49.5576092 49.9971657,49.6954013 50.6006782,49.6954013 C51.1859024,49.6954013 51.63091,49.5872419 51.9357143,49.3709198 C52.2405186,49.1545977 52.3929185,48.8716053 52.3929185,48.5219341 L52.3929185,48.5219341 Z" id="Slides" fill="#FFFFFF"></path>
                    </g>
                </g>
                <g id="article-icon-+-Oval-1-Copy-5" transform="translate(0.957136, 115.152071)" sketch:type="MSShapeGroup">
                    <g id="article-icon" transform="translate(26.000000, 19.000000)">
                        <rect id="Rectangle-15" stroke="#000000" x="0" y="0" width="52" height="67"></rect>
                        <rect id="Rectangle-19-Copy" stroke="#3B3B3B" stroke-width="0.3" fill="#A9C6E8" x="6" y="7" width="18" height="27"></rect>
                        <rect id="Rectangle-19-Copy-2" stroke="#3B3B3B" stroke-width="0.3" fill="#4A7DBB" x="25" y="40" width="22" height="21"></rect>
                        <rect id="Rectangle-18" fill="#000000" x="27" y="7" width="19" height="3"></rect>
                        <rect id="Rectangle-18-Copy" fill="#000000" x="27" y="12" width="10" height="3"></rect>
                        <rect id="Rectangle-18-Copy-2" fill="#000000" x="39" y="12" width="8" height="3"></rect>
                        <rect id="Rectangle-18-Copy-3" fill="#000000" x="27" y="17" width="7" height="3"></rect>
                        <rect id="Rectangle-18-Copy-4" fill="#000000" x="35" y="17" width="11" height="3"></rect>
                        <rect id="Rectangle-18-Copy-6" fill="#000000" x="27" y="22" width="4" height="3"></rect>
                        <rect id="Rectangle-18-Copy-5" fill="#000000" x="32" y="22" width="6" height="3"></rect>
                        <rect id="Rectangle-18-Copy-7" fill="#000000" x="39" y="22" width="9" height="3"></rect>
                        <rect id="Rectangle-18-Copy-15" fill="#000000" x="3" y="43" width="16" height="3"></rect>
                        <rect id="Rectangle-18-Copy-8" fill="#000000" x="3" y="48" width="10" height="3"></rect>
                        <rect id="Rectangle-18-Copy-9" fill="#000000" x="15" y="48" width="7" height="3"></rect>
                        <rect id="Rectangle-18-Copy-10" fill="#000000" x="3" y="53" width="7" height="3"></rect>
                        <rect id="Rectangle-18-Copy-11" fill="#000000" x="11" y="53" width="11" height="3"></rect>
                        <rect id="Rectangle-18-Copy-12" fill="#000000" x="3" y="58" width="4" height="3"></rect>
                        <rect id="Rectangle-18-Copy-13" fill="#000000" x="8" y="58" width="6" height="3"></rect>
                        <rect id="Rectangle-18-Copy-14" fill="#000000" x="15" y="58" width="8" height="3"></rect>
                    </g>
                    <circle id="Oval-1-Copy-3" stroke="#3A8FDA" stroke-width="2" cx="52.5" cy="52.5" r="52.5"></circle>
                </g>
                <g id="link_icon-copy-+-Oval-1-Copy-4-Copy-Copy" transform="translate(40.157418, 324.000000)" sketch:type="MSShapeGroup">
                    <g id="link_icon-copy" transform="translate(51.792893, 52.500000) rotate(-45.000000) translate(-51.792893, -52.500000) translate(25.792893, 26.500000)" fill="#000000">
                        <g id="Group" transform="translate(1.000000, 1.000000)">
                            <path d="M7.84125,20.0175 C6.12,18.29625 5.1,16.00125 5.03625,13.57875 C4.9725,11.22 5.865,9.0525 7.45875,7.45875 C9.0525,5.865 11.22,4.9725 13.57875,5.03625 C16.00125,5.1 18.2325,6.05625 20.0175,7.84125 L26.45625,14.28 C30.02625,17.85 30.2175,23.46 26.83875,26.83875 C25.94625,27.73125 25.94625,29.13375 26.83875,29.9625 C27.285,30.40875 27.85875,30.6 28.4325,30.6 C29.00625,30.6 29.58,30.40875 30.02625,29.9625 C35.12625,24.8625 34.935,16.38375 29.64375,11.0925 L23.205,4.7175 C20.655,2.1675 17.27625,0.70125 13.77,0.6375 C10.2,0.51 6.82125,1.84875 4.335,4.335 C1.84875,6.82125 0.51,10.13625 0.6375,13.77 C0.70125,17.34 2.1675,20.655 4.7175,23.205 L11.15625,29.64375 C12.04875,30.53625 13.45125,30.53625 14.28,29.64375 C15.1725,28.75125 15.1725,27.34875 14.28,26.52 L7.84125,20.0175 L7.84125,20.0175 Z" id="Shape"></path>
                            <path d="M46.2825,27.795 L39.84375,21.35625 C38.95125,20.46375 37.54875,20.46375 36.72,21.35625 C35.8275,22.24875 35.8275,23.65125 36.72,24.48 L43.15875,30.91875 C44.88,32.64 45.9,34.935 45.96375,37.3575 C46.0275,39.71625 45.135,41.88375 43.54125,43.4775 C41.9475,45.07125 39.78,45.96375 37.42125,45.9 C34.99875,45.83625 32.7675,44.88 30.9825,43.095 L24.54375,36.72 C20.97375,33.15 20.7825,27.54 24.16125,24.16125 C25.05375,23.26875 25.05375,21.86625 24.16125,21.0375 C23.26875,20.145 21.86625,20.145 21.0375,21.0375 C15.9375,26.1375 16.12875,34.61625 21.42,39.9075 L27.85875,46.34625 C30.40875,48.89625 33.7875,50.3625 37.29375,50.42625 L37.6125,50.42625 C41.055,50.42625 44.30625,49.0875 46.665,46.72875 C49.15125,44.2425 50.49,40.9275 50.3625,37.29375 C50.29875,33.72375 48.8325,30.345 46.2825,27.795 L46.2825,27.795 Z" id="Shape"></path>
                        </g>
                    </g>
                    <circle id="Oval-1-Copy-4" stroke="#3A8FDA" stroke-width="2" cx="52.5" cy="52.5" r="52.5"></circle>
                </g>
                <g id="book_icon_oval" transform="translate(301.000000, 324.000000)" sketch:type="MSShapeGroup">
                    <g id="Oval-1-Copy-6-+-books_icon">
                        <circle id="Oval-1-Copy-6" stroke="#3A8FDA" stroke-width="2" cx="52.6336977" cy="53" r="52.5"></circle>
                        <g id="books_icon" transform="translate(12.000000, 28.000000)">
                            <g id="Group">
                                <path d="M15.3769,15.8222097 L15.3769,15.8247742 L72.2379778,15.8247742 L73.7163778,15.8247742 L76.8999,15.8247742 L76.8999,13.9860161 L72.7906667,13.9860161 C71.1899222,10.2230161 71.1411556,5.91462903 72.6375222,2.13367742 L76.8999,2.13367742 L76.8999,0.294919355 L73.5144667,0.294919355 L72.0548889,0.294919355 L15.3914444,0.294919355 L15.3914444,0.299193548 C11.1213667,0.322274194 7.66663333,3.78522581 7.66663333,8.05770968 C7.66663333,12.3310484 11.1136667,15.7914355 15.3769,15.8222097 L15.3769,15.8222097 Z M15.4333667,2.13367742 L71.2635,2.13367742 C69.8834889,5.93343548 69.9322556,10.1982258 71.3986778,13.9860161 L15.4333667,13.9860161 C15.4325111,13.9860161 13.3013222,11.9386774 13.3013222,8.06112903 C13.3013222,4.18443548 15.4325111,2.13453226 15.4333667,2.13367742 L15.4333667,2.13367742 Z" id="Shape" fill="#4A7DBB"></path>
                                <path d="M77,44.9380161 C77,40.6663871 73.5452667,37.2025806 69.2751889,37.1795 L69.2751889,37.1752258 L12.6117444,37.1752258 L11.1521667,37.1752258 L7.76673333,37.1752258 L7.76673333,39.0139839 L12.0291111,39.0139839 C13.5254778,42.7949355 13.4767111,47.1033226 11.8759667,50.8663226 L7.76673333,50.8663226 L7.76673333,52.7050806 L10.9502556,52.7050806 L12.4286556,52.7050806 L69.2897333,52.7050806 L69.2897333,52.7025161 C73.5529667,52.6708871 77,49.2113548 77,44.9380161 L77,44.9380161 Z M69.2332667,50.8663226 L13.2688111,50.8663226 C14.7343778,47.0793871 14.784,42.8137419 13.4039889,39.0139839 L69.2341222,39.0139839 C69.2349778,39.0148387 71.3661667,41.0638871 71.3661667,44.9414355 C71.3653111,48.8189839 69.2341222,50.8654677 69.2332667,50.8663226 L69.2332667,50.8663226 Z" id="Shape" fill="#4A7DBB"></path>
                                <path d="M64.5722,34.1097742 L66.0506,34.1097742 L69.2341222,34.1097742 L69.2341222,32.2710161 L65.1248889,32.2710161 C63.5241444,28.5080161 63.4753778,24.199629 64.9717444,20.4186774 L69.2341222,20.4186774 L69.2341222,18.5799194 L65.8486889,18.5799194 L64.3891111,18.5799194 L7.72566667,18.5799194 L7.72566667,18.5841935 C3.45473333,18.608129 0,22.0710806 0,26.3435645 C0,30.6169032 3.44703333,34.0764355 7.71026667,34.1072097 L7.71026667,34.1097742 L64.5722,34.1097742 L64.5722,34.1097742 Z M7.76673333,20.4186774 L63.5968667,20.4186774 C62.2168556,24.2184355 62.2656222,28.4832258 63.7320444,32.2710161 L7.76673333,32.2710161 C7.76587778,32.2710161 5.63468889,30.2236774 5.63468889,26.346129 C5.63468889,22.4694355 7.76587778,20.4195323 7.76673333,20.4186774 L7.76673333,20.4186774 Z" id="Shape" fill="#786DD1"></path>
                            </g>
                        </g>
                    </g>
                    <path d="M46.4208984,36.2270508 L43.8896484,36.2270508 L43.8896484,37.940918 L46.8603516,37.940918 L46.8603516,39 L42.5712891,39 L42.5712891,32.6015625 L46.8515625,32.6015625 L46.8515625,33.6694336 L43.8896484,33.6694336 L43.8896484,35.1943359 L46.4208984,35.1943359 L46.4208984,36.2270508 Z M48.9521484,36.7456055 L48.9521484,39 L47.6337891,39 L47.6337891,32.6015625 L50.1298828,32.6015625 C50.610354,32.6015625 51.0329572,32.6894522 51.3977051,32.8652344 C51.762453,33.0410165 52.0429678,33.2907699 52.2392578,33.614502 C52.4355479,33.938234 52.5336914,34.3066386 52.5336914,34.7197266 C52.5336914,35.3466828 52.3190939,35.8410626 51.8898926,36.2028809 C51.4606912,36.5646991 50.866703,36.7456055 50.1079102,36.7456055 L48.9521484,36.7456055 Z M48.9521484,35.6777344 L50.1298828,35.6777344 C50.4785174,35.6777344 50.7443839,35.5957039 50.9274902,35.4316406 C51.1105966,35.2675773 51.2021484,35.0332046 51.2021484,34.7285156 C51.2021484,34.4150375 51.1098642,34.1616221 50.925293,33.9682617 C50.7407217,33.7749014 50.4858415,33.675293 50.1606445,33.6694336 L48.9521484,33.6694336 L48.9521484,35.6777344 Z M58.2817383,32.6015625 L58.2817383,36.815918 C58.2817383,37.5161168 58.0627463,38.0698222 57.6247559,38.4770508 C57.1867654,38.8842794 56.5883827,39.0878906 55.8295898,39.0878906 C55.0825158,39.0878906 54.48926,38.8901387 54.0498047,38.4946289 C53.6103494,38.0991191 53.3862305,37.5556675 53.3774414,36.8642578 L53.3774414,32.6015625 L54.6958008,32.6015625 L54.6958008,36.824707 C54.6958008,37.2436544 54.7961416,37.5490713 54.9968262,37.7409668 C55.1975108,37.9328623 55.4750959,38.0288086 55.8295898,38.0288086 C56.5708045,38.0288086 56.9472656,37.6391641 56.9589844,36.8598633 L56.9589844,32.6015625 L58.2817383,32.6015625 Z M59.362793,39 L59.362793,32.6015625 L61.6040039,32.6015625 C62.380375,32.6015625 62.9692363,32.7502427 63.3706055,33.0476074 C63.7719747,33.3449722 63.9726562,33.7807588 63.9726562,34.3549805 C63.9726562,34.6684586 63.8920906,34.9445789 63.730957,35.1833496 C63.5698234,35.4221203 63.3457046,35.5971674 63.0585938,35.7084961 C63.3867204,35.7905278 63.6452627,35.9560534 63.8342285,36.2050781 C64.0231943,36.4541028 64.1176758,36.7587873 64.1176758,37.1191406 C64.1176758,37.7343781 63.9213887,38.2001937 63.5288086,38.5166016 C63.1362285,38.8330094 62.5766638,38.9941406 61.8500977,39 L59.362793,39 Z M60.6811523,36.2138672 L60.6811523,37.940918 L61.8105469,37.940918 C62.1210953,37.940918 62.3635245,37.8669441 62.5378418,37.7189941 C62.7121591,37.5710442 62.7993164,37.3667005 62.7993164,37.105957 C62.7993164,36.5200166 62.4960968,36.2226563 61.8896484,36.2138672 L60.6811523,36.2138672 Z M60.6811523,35.2822266 L61.6567383,35.2822266 C62.3217807,35.2705078 62.6542969,35.0053737 62.6542969,34.4868164 C62.6542969,34.1967759 62.5700692,33.9880377 62.4016113,33.8605957 C62.2331535,33.7331537 61.967287,33.6694336 61.6040039,33.6694336 L60.6811523,33.6694336 L60.6811523,35.2822266 Z" id="EPUB" fill="#4A7DBB"></path>
                    <path d="M38.2939453,51.6015625 L39.9375,56.2421875 L41.5722656,51.6015625 L43.3037109,51.6015625 L43.3037109,58 L41.980957,58 L41.980957,56.2509766 L42.112793,53.2319336 L40.3857422,58 L39.4804688,58 L37.7578125,53.2363281 L37.8896484,56.2509766 L37.8896484,58 L36.5712891,58 L36.5712891,51.6015625 L38.2939453,51.6015625 Z M49.7109375,54.9458008 C49.7109375,55.5756867 49.5996105,56.1279273 49.3769531,56.6025391 C49.1542958,57.0771508 48.8356954,57.4433581 48.4211426,57.7011719 C48.0065897,57.9589857 47.5312527,58.0878906 46.9951172,58.0878906 C46.4648411,58.0878906 45.9917013,57.9604505 45.5756836,57.7055664 C45.1596659,57.4506823 44.8374035,57.0866723 44.6088867,56.6135254 C44.38037,56.1403785 44.2646485,55.5961945 44.2617188,54.980957 L44.2617188,54.6645508 C44.2617188,54.0346648 44.375243,53.480227 44.6022949,53.0012207 C44.8293468,52.5222144 45.1501444,52.1545423 45.5646973,51.8981934 C45.9792501,51.6418444 46.4531223,51.5136719 46.9863281,51.5136719 C47.5195339,51.5136719 47.9934061,51.6418444 48.407959,51.8981934 C48.8225118,52.1545423 49.1433094,52.5222144 49.3703613,53.0012207 C49.5974132,53.480227 49.7109375,54.0332 49.7109375,54.6601562 L49.7109375,54.9458008 Z M48.375,54.6557617 C48.375,53.9848599 48.254884,53.4750994 48.0146484,53.1264648 C47.7744129,52.7778303 47.4316429,52.6035156 46.9863281,52.6035156 C46.5439431,52.6035156 46.2026379,52.775633 45.9624023,53.119873 C45.7221668,53.464113 45.600586,53.9687467 45.5976562,54.6337891 L45.5976562,54.9458008 C45.5976562,55.5991244 45.7177722,56.1059552 45.9580078,56.4663086 C46.1982434,56.826662 46.5439431,57.0068359 46.9951172,57.0068359 C47.4375022,57.0068359 47.7773426,56.8332537 48.0146484,56.486084 C48.2519543,56.1389143 48.3720703,55.6328158 48.375,54.9677734 L48.375,54.6557617 Z M50.6689453,58 L50.6689453,51.6015625 L52.9101562,51.6015625 C53.6865273,51.6015625 54.2753886,51.7502427 54.6767578,52.0476074 C55.078127,52.3449722 55.2788086,52.7807588 55.2788086,53.3549805 C55.2788086,53.6684586 55.198243,53.9445789 55.0371094,54.1833496 C54.8759758,54.4221203 54.6518569,54.5971674 54.3647461,54.7084961 C54.6928727,54.7905278 54.9514151,54.9560534 55.1403809,55.2050781 C55.3293466,55.4541028 55.4238281,55.7587873 55.4238281,56.1191406 C55.4238281,56.7343781 55.227541,57.2001937 54.8349609,57.5166016 C54.4423808,57.8330094 53.8828161,57.9941406 53.15625,58 L50.6689453,58 Z M51.9873047,55.2138672 L51.9873047,56.940918 L53.1166992,56.940918 C53.4272476,56.940918 53.6696769,56.8669441 53.8439941,56.7189941 C54.0183114,56.5710442 54.1054688,56.3667005 54.1054688,56.105957 C54.1054688,55.5200166 53.8022491,55.2226563 53.1958008,55.2138672 L51.9873047,55.2138672 Z M51.9873047,54.2822266 L52.9628906,54.2822266 C53.627933,54.2705078 53.9604492,54.0053737 53.9604492,53.4868164 C53.9604492,53.1967759 53.8762215,52.9880377 53.7077637,52.8605957 C53.5393058,52.7331537 53.2734393,52.6694336 52.9101562,52.6694336 L51.9873047,52.6694336 L51.9873047,54.2822266 Z M57.8144531,58 L56.4960938,58 L56.4960938,51.6015625 L57.8144531,51.6015625 L57.8144531,58 Z" id="MOBI" fill="#786DD1"></path>
                    <path d="M46.8896484,73.7456055 L46.8896484,76 L45.5712891,76 L45.5712891,69.6015625 L48.0673828,69.6015625 C48.547854,69.6015625 48.9704572,69.6894522 49.3352051,69.8652344 C49.699953,70.0410165 49.9804678,70.2907699 50.1767578,70.614502 C50.3730479,70.938234 50.4711914,71.3066386 50.4711914,71.7197266 C50.4711914,72.3466828 50.2565939,72.8410626 49.8273926,73.2028809 C49.3981912,73.5646991 48.804203,73.7456055 48.0454102,73.7456055 L46.8896484,73.7456055 Z M46.8896484,72.6777344 L48.0673828,72.6777344 C48.4160174,72.6777344 48.6818839,72.5957039 48.8649902,72.4316406 C49.0480966,72.2675773 49.1396484,72.0332046 49.1396484,71.7285156 C49.1396484,71.4150375 49.0473642,71.1616221 48.862793,70.9682617 C48.6782217,70.7749014 48.4233415,70.675293 48.0981445,70.6694336 L46.8896484,70.6694336 L46.8896484,72.6777344 Z M51.3764648,76 L51.3764648,69.6015625 L53.3452148,69.6015625 C53.9077177,69.6015625 54.4108865,69.7282702 54.8547363,69.9816895 C55.2985862,70.2351087 55.6450183,70.5954566 55.894043,71.0627441 C56.1430677,71.5300316 56.2675781,72.0610322 56.2675781,72.6557617 L56.2675781,72.9501953 C56.2675781,73.5449248 56.1452649,74.0737282 55.9006348,74.5366211 C55.6560046,74.999514 55.3110374,75.3583972 54.8657227,75.6132812 C54.4204079,75.8681653 53.9179715,75.9970703 53.3583984,76 L51.3764648,76 Z M52.6948242,70.6694336 L52.6948242,74.940918 L53.3320312,74.940918 C53.8476588,74.940918 54.2416979,74.7724626 54.5141602,74.4355469 C54.7866225,74.0986311 54.9257812,73.6167024 54.9316406,72.9897461 L54.9316406,72.6513672 C54.9316406,72.0009733 54.7968763,71.5080583 54.5273438,71.1726074 C54.2578112,70.8371565 53.8637721,70.6694336 53.3452148,70.6694336 L52.6948242,70.6694336 Z M61.0751953,73.3852539 L58.5439453,73.3852539 L58.5439453,76 L57.2255859,76 L57.2255859,69.6015625 L61.3916016,69.6015625 L61.3916016,70.6694336 L58.5439453,70.6694336 L58.5439453,72.3217773 L61.0751953,72.3217773 L61.0751953,73.3852539 Z" id="PDF" fill="#4A7DBB"></path>
                </g>
                <g id="Path-28-Copy-8-+-Triangle-2-Copy-29" transform="translate(261.000000, 149.000000)" sketch:type="MSShapeGroup">
                    <path d="M27.330231,-12.6301161 C64.1255954,17.2979426 40.5108255,58.098781 40.5108255,58.098781" id="Path-28-Copy-8" stroke="#000000" stroke-dasharray="5,5" transform="translate(37.651012, 22.734332) rotate(249.000000) translate(-37.651012, -22.734332) "></path>
                    <path d="M62.7810403,4.44789024 L70.7810403,4.18599183 L67.0346947,11.1432389 L62.7810403,4.44789024 L62.7810403,4.44789024 Z" id="Triangle-2-Copy-29" fill="#000000" transform="translate(66.781040, 7.664615) rotate(34.000000) translate(-66.781040, -7.664615) "></path>
                </g>
                <g id="Path-28-Copy-8-+-Triangle-2-Copy-29-Copy" transform="translate(151.500000, 172.000000) scale(-1, 1) translate(-151.500000, -172.000000) translate(114.000000, 149.000000)" sketch:type="MSShapeGroup">
                    <path d="M27.330231,-12.6301161 C64.1255954,17.2979426 40.5108255,58.098781 40.5108255,58.098781" id="Path-28-Copy-8" stroke="#000000" stroke-dasharray="5,5" transform="translate(37.651012, 22.734332) rotate(249.000000) translate(-37.651012, -22.734332) "></path>
                    <path d="M62.7810403,4.44789024 L70.7810403,4.18599183 L67.0346947,11.1432389 L62.7810403,4.44789024 L62.7810403,4.44789024 Z" id="Triangle-2-Copy-29" fill="#000000" transform="translate(66.781040, 7.664615) rotate(34.000000) translate(-66.781040, -7.664615) "></path>
                </g>
                <path d="M154.829628,301.3725 C200.259556,309.179903 205.469547,354.826366 205.469547,354.826366" id="Path-28-Copy-8" stroke="#000000" stroke-dasharray="5,5" sketch:type="MSShapeGroup" transform="translate(180.149588, 328.099433) scale(-1, -1) rotate(266.000000) translate(-180.149588, -328.099433) "></path>
                <path d="M244.829628,301.3725 C290.259556,309.179903 295.469547,354.826366 295.469547,354.826366" id="Path-28-Copy-9" stroke="#000000" stroke-dasharray="5,5" sketch:type="MSShapeGroup" transform="translate(270.149588, 328.099433) scale(1, -1) rotate(266.000000) translate(-270.149588, -328.099433) "></path>
                <path d="M154.872326,350.005366 L162.872326,349.743467 L159.12598,356.700714 L154.872326,350.005366 L154.872326,350.005366 Z" id="Triangle-2-Copy-29" fill="#000000" sketch:type="MSShapeGroup" transform="translate(158.872326, 353.222091) scale(-1, -1) rotate(17.000000) translate(-158.872326, -353.222091) "></path>
                <path d="M287.872326,350.005366 L295.872326,349.743467 L292.12598,356.700714 L287.872326,350.005366 L287.872326,350.005366 Z" id="Triangle-2-Copy-31" fill="#000000" sketch:type="MSShapeGroup" transform="translate(291.872326, 353.222091) scale(1, -1) rotate(17.000000) translate(-291.872326, -353.222091) "></path>
                <g id="Path-35-Copy-4-+-Triangle-2-Copy-30" transform="translate(219.000000, 117.000000)" sketch:type="MSShapeGroup">
                    <path d="M4.15741837,6 L4.15741837,65.5009871" id="Path-35-Copy-4" stroke="#000000" stroke-dasharray="5,5"></path>
                    <path d="M1.15741837,2.93534633 L9.15741837,2.67344791 L5.41107278,9.63069497 L1.15741837,2.93534633 L1.15741837,2.93534633 Z" id="Triangle-2-Copy-30" fill="#000000" transform="translate(5.157418, 6.152071) rotate(302.000000) translate(-5.157418, -6.152071) "></path>
                </g>
            </g>
        </g>
    </g>
</svg>