<?xml version="1.0" encoding="UTF-8" standalone="no"?>
<svg width="500px" height="501px" viewBox="0 0 500 501" version="1.1" xmlns="http://www.w3.org/2000/svg" xmlns:xlink="http://www.w3.org/1999/xlink" xmlns:sketch="http://www.bohemiancoding.com/sketch/ns">
    <!-- Generator: Sketch 3.3.2 (12043) - http://www.bohemiancoding.com/sketch -->
    <title>illustration slice</title>
    <desc>Created with Sketch.</desc>
    <defs></defs>
    <g id="Page-1" stroke="none" stroke-width="1" fill="none" fill-rule="evenodd" sketch:type="MSPage">
        <g id="Desktop-Full-HD" sketch:type="MSArtboardGroup" transform="translate(-207.000000, -1324.000000)">
            <g id="Group" sketch:type="MSLayerGroup" transform="translate(221.000000, 1335.000000)">
                <g sketch:type="MSShapeGroup">
                    <g id="LastSlide-logo-+-Oval-1-Copy-2" transform="translate(180.000000, 188.000000)">
                        <g id="LastSlide-logo" transform="translate(18.000000, 32.000000)">
                            <path d="M6.12,2.92134275 L62.2200025,2.92134275 L62.2200002,40.0246833 C62.2200001,41.5278143 60.996099,42.7463428 59.4952216,42.7463428 L8.84477843,42.7463428 C7.33992486,42.7463428 6.12,41.5240144 6.12,40.0273301 C6.12,40.0273301 6.12,13.4472561 6.12,2.92134275 Z" id="Rectangle-1-Copy-13" stroke="#979797" stroke-width="0.5" fill-opacity="0.45739923" fill="#5C54A0"></path>
                            <rect id="Rectangle-2-Copy-13" fill="#000000" x="0" y="0.221342754" width="68" height="2.7" rx="2.72"></rect>
                            <rect id="Rectangle-3-Copy-6" fill="#000000" x="32.3" y="42.7463428" width="3.4" height="7.7625"></rect>
                            <rect id="Rectangle-4-Copy-6" fill="#000000" x="24.82" y="50.5088428" width="18.36" height="3.375" rx="2.72"></rect>
                            <path d="M6.51120275,3.05137687 L62.2200025,39.7614355 L62.2199999,2.92134275 L6.51120275,3.05137687 Z" id="Path-19-Copy-13" fill="#225079"></path>
                        </g>
                        <circle id="Oval-1" stroke="#786DD1" stroke-width="2" cx="52.5" cy="53" r="52.5"></circle>
                    </g>
                    <g id="Oval-1-Copy-+-video-icon-Copy-Copy" transform="translate(356.203150, 82.500000)">
                        <circle id="Oval-1-Copy" stroke="#3A8FDA" stroke-width="2" cx="52.5" cy="52.5" r="52.5"></circle>
                        <g id="video-icon" transform="translate(16.000000, 26.000000)">
                            <rect id="Rectangle-12" stroke="#3B3B3B" stroke-width="1.2" fill="#4A7DBB" x="0" y="0" width="73" height="53.8902439"></rect>
                            <rect id="Rectangle-13" stroke="#3B3B3B" stroke-width="1.2" fill="#D8D8D8" x="0" y="42.2053043" width="73" height="11.6849396"></rect>
                            <rect id="Rectangle-16" fill="#3B3B3B" x="16.4726841" y="48.1349751" width="49.7648456" height="0.872010419"></rect>
                            <rect id="Rectangle-17" stroke="#3B3B3B" stroke-width="0.5" fill="#FFFFFF" x="53.6662708" y="45.3445418" width="3.64133017" height="5.4064646"></rect>
                            <rect id="Rectangle-14" fill="#3B3B3B" x="6.76247031" y="45.5189439" width="1.3871734" height="5.23206251"></rect>
                            <rect id="Rectangle-14-Copy" fill="#3B3B3B" x="8.49643705" y="45.5189439" width="1.3871734" height="5.23206251"></rect>
                            <path d="M30.5178147,31.0435709 L30.5178147,11.8593417 L46.8171021,21.4514563 L30.5178147,31.0435709 Z" id="Triangle-2" stroke="#3B3B3B" stroke-width="1.2" fill="#FFFFFF"></path>
                        </g>
                    </g>
                    <g id="Oval-1-Copy-2-+-ppt-icon-Copy-Copy" transform="translate(180.133698, 0.500000)">
                        <circle id="Oval-1-Copy-2" stroke="#3A8FDA" stroke-width="2" cx="52.5" cy="52.5" r="52.5"></circle>
                        <g id="ppt-icon" transform="translate(20.000000, 17.000000)">
                            <path d="M42.7077659,2 L4.89855072,2 L4.89855072,69 L60.2898551,69 L60.2898551,19.0677507 L60.2898551,19.0677507 L60.2702391,19.0677507 L60.2758498,19.4400282 L43.0173934,2.18157182 L42.5797101,2.18157182 L42.5797101,2 L42.7077659,2 Z M58.0321921,2 L55.962935,2 L60.0140264,2.06771386 L60.0157423,2.18157182 L60.1014493,2.18157182 L60.1014493,7.86833438 L60.0157423,2.18157182 Z" id="Rectangle-7" stroke="#3B3B3B" stroke-width="0.9234" fill="#FFFFFF"></path>
                            <rect id="Rectangle-133" fill="#FFFFFF" x="54" y="0" width="9" height="9"></rect>
                            <path d="M42.6636364,3.08841662 L42.6636364,19.3410642" id="Line" stroke="#3B3B3B" stroke-width="0.9234" stroke-linecap="square"></path>
                            <path d="M59.3478261,19.6315789 L42.3913043,19.6315789" id="Line" stroke="#3B3B3B" stroke-width="0.9234" stroke-linecap="square"></path>
                            <rect id="Rectangle-10" stroke="#3B3B3B" stroke-width="0.9234" fill="#4A7DBB" x="0" y="30.5067751" width="65" height="27.7804878"></rect>
                            <path d="M12.5338601,47.8018519 C12.5338601,47.2328952 12.3281203,46.7943311 11.9166345,46.4861462 C11.5051487,46.1779614 10.7629614,45.8668179 9.69005028,45.5527064 C8.61713916,45.2385949 7.76369994,44.8889289 7.12970701,44.5036978 C5.91658591,43.7628688 5.31003447,42.7968424 5.31003447,41.6055894 C5.31003447,40.5625022 5.74742207,39.7031535 6.62221039,39.0275174 C7.49699872,38.3518814 8.63237769,38.0140685 10.0283814,38.0140685 C10.9549864,38.0140685 11.7809937,38.1800117 12.5064279,38.5119031 C13.2318621,38.8437944 13.8018376,39.3164362 14.2163714,39.9298426 C14.6309053,40.543249 14.8381691,41.2233198 14.8381691,41.9700754 L12.5338601,41.9700754 C12.5338601,41.2944394 12.3159283,40.7654954 11.8800582,40.3832277 C11.444188,40.0009599 10.8208726,39.8098289 10.0100932,39.8098289 C9.25417854,39.8098289 8.66743907,39.9668823 8.24985719,40.2809938 C7.83227531,40.5951053 7.6234875,41.0336694 7.6234875,41.5966995 C7.6234875,42.07083 7.84903929,42.4664267 8.30014965,42.7835015 C8.75126,43.1005763 9.49497133,43.4087566 10.5313059,43.7080515 C11.5676405,44.0073464 12.3997438,44.3481226 13.0276406,44.7303903 C13.6555375,45.1126581 14.1157851,45.5512223 14.4083972,46.046096 C14.7010093,46.5409698 14.8473132,47.1202893 14.8473132,47.7840721 C14.8473132,48.8627191 14.4221176,49.7205861 13.5717136,50.3576991 C12.7213096,50.994812 11.5676426,51.3133637 10.1106781,51.3133637 C9.14749653,51.3133637 8.26205334,51.1400123 7.45432196,50.7933043 C6.64659058,50.4465964 6.01870315,49.968028 5.57064083,49.357585 C5.12257852,48.7471419 4.89855072,48.0359567 4.89855072,47.2240082 L7.21200376,47.2240082 C7.21200376,47.9589105 7.46193953,48.5278586 7.96181857,48.9308696 C8.46169762,49.3338806 9.17797696,49.535383 10.1106781,49.535383 C10.9153614,49.535383 11.5203889,49.376848 11.9257786,49.0597732 C12.3311683,48.7426984 12.5338601,48.3233955 12.5338601,47.8018519 L12.5338601,47.8018519 Z M19.0261592,51.1355656 L16.804147,51.1355656 L16.804147,37.4806743 L19.0261592,37.4806743 L19.0261592,51.1355656 Z M23.8085146,51.1355656 L21.5865024,51.1355656 L21.5865024,41.5166903 L23.8085146,41.5166903 L23.8085146,51.1355656 Z M21.4493412,39.0186275 C21.4493412,38.6867362 21.5575451,38.4111519 21.7739561,38.1918665 C21.9903672,37.9725812 22.2997389,37.8629401 22.7020806,37.8629401 C23.1044222,37.8629401 23.415318,37.9725812 23.634777,38.1918665 C23.8542361,38.4111519 23.963964,38.6867362 23.963964,39.0186275 C23.963964,39.3445923 23.8542361,39.6157316 23.634777,39.8320537 C23.415318,40.0483757 23.1044222,40.1565351 22.7020806,40.1565351 C22.2997389,40.1565351 21.9903672,40.0483757 21.7739561,39.8320537 C21.5575451,39.6157316 21.4493412,39.3445923 21.4493412,39.0186275 L21.4493412,39.0186275 Z M25.8110688,46.2550087 C25.8110688,44.7733508 26.1646365,43.5835973 26.8717825,42.6857126 C27.5789284,41.7878279 28.5268556,41.3388923 29.7155923,41.3388923 C30.7641191,41.3388923 31.6114623,41.6944848 32.2576474,42.4056807 L32.2576474,37.4806743 L34.4796596,37.4806743 L34.4796596,51.1355656 L32.4679613,51.1355656 L32.3582324,50.1398964 C31.693759,50.9222118 30.8067918,51.3133637 29.6973042,51.3133637 C28.5390478,51.3133637 27.6017887,50.8599831 26.8854986,49.9532085 C26.1692085,49.0464338 25.8110688,47.8137129 25.8110688,46.2550087 L25.8110688,46.2550087 Z M28.033081,46.4416967 C28.033081,47.4195909 28.2266289,48.1826333 28.6137303,48.7308468 C29.0008318,49.2790602 29.5509953,49.5531628 30.2642373,49.5531628 C31.1725541,49.5531628 31.8370175,49.1590477 32.2576474,48.3708057 L32.2576474,44.2636704 C31.8492097,43.4932083 31.1908423,43.107983 30.2825255,43.107983 C29.5631873,43.107983 29.0084519,43.3850489 28.6183024,43.939189 C28.2281529,44.493329 28.033081,45.3274899 28.033081,46.4416967 L28.033081,46.4416967 Z M41.1548403,51.3133637 C39.7466445,51.3133637 38.6051695,50.8822077 37.7303812,50.0198827 C36.8555929,49.1575578 36.4182053,48.0092901 36.4182053,46.5750453 L36.4182053,46.3083482 C36.4182053,45.3482338 36.6087051,44.4903667 36.9897105,43.7347212 C37.3707158,42.9790756 37.9056393,42.3908663 38.594497,41.9700754 C39.2833548,41.5492845 40.0514501,41.3388923 40.898806,41.3388923 C42.246041,41.3388923 43.286932,41.7567135 44.0215104,42.5923686 C44.7560887,43.4280237 45.1233724,44.610369 45.1233724,46.13944 L45.1233724,47.0106505 L38.6585056,47.0106505 C38.7255626,47.8048192 38.9983583,48.4330327 39.4769011,48.89531 C39.9554438,49.3575873 40.5574233,49.5887224 41.2828575,49.5887224 C42.3009038,49.5887224 43.1299591,49.1886808 43.7700481,48.3885855 L44.967923,49.4998234 C44.5716774,50.0747067 44.0428499,50.520679 43.3814246,50.8377538 C42.7199992,51.1548286 41.9778119,51.3133637 41.1548403,51.3133637 L41.1548403,51.3133637 Z M40.8896619,43.0724234 C40.2800533,43.0724234 39.7878018,43.2798524 39.4128925,43.6947166 C39.0379832,44.1095808 38.7987154,44.6874188 38.695082,45.4282477 L42.9287924,45.4282477 L42.9287924,45.2682295 C42.8800238,44.5451804 42.6819039,43.9984568 42.334427,43.6280423 C41.9869501,43.2576279 41.5053666,43.0724234 40.8896619,43.0724234 L40.8896619,43.0724234 Z M52.3929185,48.5219341 C52.3929185,48.136703 52.2298506,47.8433391 51.90371,47.6418336 C51.5775694,47.4403282 51.0365499,47.2625319 50.2806353,47.1084394 C49.5247206,46.954347 48.8937852,46.7587711 48.3878101,46.5217058 C47.2783224,46.0001622 46.7235869,45.244528 46.7235869,44.2547805 C46.7235869,43.4250521 47.0832506,42.7316466 47.8025888,42.1745432 C48.5219269,41.6174398 49.4363261,41.3388923 50.5458137,41.3388923 C51.7284544,41.3388923 52.6840015,41.6233663 53.4124837,42.192323 C54.140966,42.7612796 54.5052017,43.4991342 54.5052017,44.4059089 L52.2831895,44.4059089 C52.2831895,43.9910447 52.1246936,43.6458235 51.8076972,43.3702352 C51.4907007,43.0946468 51.0700771,42.9568547 50.5458137,42.9568547 C50.0581268,42.9568547 49.6603632,43.0664957 49.3525108,43.2857811 C49.0446585,43.5050664 48.8907346,43.7984303 48.8907346,44.1658815 C48.8907346,44.4977729 49.0339905,44.7555775 49.3205066,44.9393031 C49.6070226,45.1230286 50.1861421,45.3082331 51.0578823,45.494922 C51.9296226,45.6816109 52.613898,45.9038563 53.110729,46.1616648 C53.60756,46.4194732 53.9763677,46.7291351 54.2171631,47.0906596 C54.4579585,47.4521842 54.5783543,47.8907483 54.5783543,48.4063653 C54.5783543,49.2716535 54.2095467,49.9724672 53.4719203,50.5088274 C52.7342939,51.0451876 51.7680788,51.3133637 50.5732459,51.3133637 C49.7624665,51.3133637 49.0400912,51.1711266 48.4060982,50.8866483 C47.7721053,50.60217 47.2783298,50.2110181 46.9247568,49.7131811 C46.5711838,49.215344 46.3944,48.6789919 46.3944,48.1041086 L48.5524036,48.1041086 C48.582884,48.6137989 48.7810038,49.0064324 49.146769,49.2820208 C49.5125341,49.5576092 49.9971657,49.6954013 50.6006782,49.6954013 C51.1859024,49.6954013 51.63091,49.5872419 51.9357143,49.3709198 C52.2405186,49.1545977 52.3929185,48.8716053 52.3929185,48.5219341 L52.3929185,48.5219341 Z" id="Slides" fill="#FFFFFF"></path>
                        </g>
                    </g>
                    <g id="article-icon-+-Oval-1-Copy-5" transform="translate(10.133698, 82.500000)">
                        <g id="article-icon" transform="translate(26.000000, 19.000000)">
                            <rect id="Rectangle-15" stroke="#000000" x="0" y="0" width="52" height="67"></rect>
                            <rect id="Rectangle-19-Copy" stroke="#3B3B3B" stroke-width="0.3" fill="#A9C6E8" x="6" y="7" width="18" height="27"></rect>
                            <rect id="Rectangle-19-Copy-2" stroke="#3B3B3B" stroke-width="0.3" fill="#4A7DBB" x="25" y="40" width="22" height="21"></rect>
                            <rect id="Rectangle-18" fill="#000000" x="27" y="7" width="19" height="3"></rect>
                            <rect id="Rectangle-18-Copy" fill="#000000" x="27" y="12" width="10" height="3"></rect>
                            <rect id="Rectangle-18-Copy-2" fill="#000000" x="39" y="12" width="8" height="3"></rect>
                            <rect id="Rectangle-18-Copy-3" fill="#000000" x="27" y="17" width="7" height="3"></rect>
                            <rect id="Rectangle-18-Copy-4" fill="#000000" x="35" y="17" width="11" height="3"></rect>
                            <rect id="Rectangle-18-Copy-6" fill="#000000" x="27" y="22" width="4" height="3"></rect>
                            <rect id="Rectangle-18-Copy-5" fill="#000000" x="32" y="22" width="6" height="3"></rect>
                            <rect id="Rectangle-18-Copy-7" fill="#000000" x="39" y="22" width="9" height="3"></rect>
                            <rect id="Rectangle-18-Copy-15" fill="#000000" x="3" y="43" width="16" height="3"></rect>
                            <rect id="Rectangle-18-Copy-8" fill="#000000" x="3" y="48" width="10" height="3"></rect>
                            <rect id="Rectangle-18-Copy-9" fill="#000000" x="15" y="48" width="7" height="3"></rect>
                            <rect id="Rectangle-18-Copy-10" fill="#000000" x="3" y="53" width="7" height="3"></rect>
                            <rect id="Rectangle-18-Copy-11" fill="#000000" x="11" y="53" width="11" height="3"></rect>
                            <rect id="Rectangle-18-Copy-12" fill="#000000" x="3" y="58" width="4" height="3"></rect>
                            <rect id="Rectangle-18-Copy-13" fill="#000000" x="8" y="58" width="6" height="3"></rect>
                            <rect id="Rectangle-18-Copy-14" fill="#000000" x="15" y="58" width="8" height="3"></rect>
                        </g>
                        <circle id="Oval-1-Copy-3" stroke="#3A8FDA" stroke-width="2" cx="52.5" cy="52.5" r="52.5"></circle>
                    </g>
                    <g id="link_icon-copy-+-Oval-1-Copy-4-Copy-Copy" transform="translate(0.133698, 277.500000)">
                        <g id="link_icon-copy" transform="translate(52.500000, 52.500000) rotate(-45.000000) translate(-52.500000, -52.500000) translate(27.000000, 27.000000)" fill="#000000">
                            <g id="Group">
                                <path d="M7.84125,20.0175 C6.12,18.29625 5.1,16.00125 5.03625,13.57875 C4.9725,11.22 5.865,9.0525 7.45875,7.45875 C9.0525,5.865 11.22,4.9725 13.57875,5.03625 C16.00125,5.1 18.2325,6.05625 20.0175,7.84125 L26.45625,14.28 C30.02625,17.85 30.2175,23.46 26.83875,26.83875 C25.94625,27.73125 25.94625,29.13375 26.83875,29.9625 C27.285,30.40875 27.85875,30.6 28.4325,30.6 C29.00625,30.6 29.58,30.40875 30.02625,29.9625 C35.12625,24.8625 34.935,16.38375 29.64375,11.0925 L23.205,4.7175 C20.655,2.1675 17.27625,0.70125 13.77,0.6375 C10.2,0.51 6.82125,1.84875 4.335,4.335 C1.84875,6.82125 0.51,10.13625 0.6375,13.77 C0.70125,17.34 2.1675,20.655 4.7175,23.205 L11.15625,29.64375 C12.04875,30.53625 13.45125,30.53625 14.28,29.64375 C15.1725,28.75125 15.1725,27.34875 14.28,26.52 L7.84125,20.0175 L7.84125,20.0175 Z" id="Shape"></path>
                                <path d="M46.2825,27.795 L39.84375,21.35625 C38.95125,20.46375 37.54875,20.46375 36.72,21.35625 C35.8275,22.24875 35.8275,23.65125 36.72,24.48 L43.15875,30.91875 C44.88,32.64 45.9,34.935 45.96375,37.3575 C46.0275,39.71625 45.135,41.88375 43.54125,43.4775 C41.9475,45.07125 39.78,45.96375 37.42125,45.9 C34.99875,45.83625 32.7675,44.88 30.9825,43.095 L24.54375,36.72 C20.97375,33.15 20.7825,27.54 24.16125,24.16125 C25.05375,23.26875 25.05375,21.86625 24.16125,21.0375 C23.26875,20.145 21.86625,20.145 21.0375,21.0375 C15.9375,26.1375 16.12875,34.61625 21.42,39.9075 L27.85875,46.34625 C30.40875,48.89625 33.7875,50.3625 37.29375,50.42625 L37.6125,50.42625 C41.055,50.42625 44.30625,49.0875 46.665,46.72875 C49.15125,44.2425 50.49,40.9275 50.3625,37.29375 C50.29875,33.72375 48.8325,30.345 46.2825,27.795 L46.2825,27.795 Z" id="Shape"></path>
                            </g>
                        </g>
                        <circle id="Oval-1-Copy-4" stroke="#3A8FDA" stroke-width="2" cx="52.5" cy="52.5" r="52.5"></circle>
                    </g>
                    <g id="chat-icon-+-Oval-1-Copy-7" transform="translate(180.133698, 372.500000)">
                        <g id="chat-icon" transform="translate(19.000000, 31.000000)" stroke="#3B3B3B" stroke-width="1.2">
                            <path d="M7.97550025,26.3315299 C3.14044883,23.5919256 0.0716949571,19.5030986 0.0716949571,14.9353448 C0.0716949571,6.68678165 10.0789117,0 22.4234391,0 C34.7679666,0 44.7751833,6.68678165 44.7751833,14.9353448 C44.7751833,23.183908 34.7679666,29.8706897 22.4234391,29.8706897 C19.6392509,29.8706897 16.973958,29.5305436 14.5155563,28.9090501 L2.71806992,41.1136747 L7.97550025,26.3315299 Z" id="Oval-114-Copy" fill="#FFFFFF"></path>
                            <path d="M59.4355139,36.5367858 C60.8467158,34.5787208 61.6375054,32.3833955 61.6375054,30.0646552 C61.6375054,24.0525068 56.3211247,18.8700622 48.6582795,16.5018073 L48.6582795,16.5018073 C48.3923011,26.1639867 36.1266957,33.9439655 21.0347817,33.9439655 C19.886547,33.9439655 18.7546725,33.8989304 17.6431985,33.8114577 C20.1312236,40.2465934 28.8777349,45 39.2857612,45 C46.1573202,45 52.3046466,42.9280524 56.4048237,39.6681248 L65.9807498,43.0041206 L59.4355139,36.5367858 Z" id="Path-Copy-6" fill="#A9C6E8"></path>
                        </g>
                        <circle id="Oval-1-Copy-5" stroke="#3A8FDA" stroke-width="2" cx="52.5" cy="53" r="52.5"></circle>
                    </g>
                    <g id="Group-Copy-2" transform="translate(366.133698, 277.500000)">
                        <path d="M83.926122,60.846805 C83.9449084,61.2087755 83.9522142,61.5739684 83.9522142,61.9402353 C83.9522142,73.1151367 75.6872671,86 60.5736544,86 C55.9344714,86 51.6146562,84.6004521 47.9763679,82.2009202 C48.6161472,82.2739588 49.2736692,82.3201449 49.9364096,82.3201449 C53.7865662,82.3201449 57.3288355,80.9667832 60.1426122,78.697217 C56.5429402,78.6316971 53.5110332,76.1838308 52.4642164,72.8251307 C52.9662292,72.9239475 53.48181,72.9787265 54.0067839,72.9787265 C54.7582376,72.9787265 55.4846428,72.873465 56.1724317,72.6812017 C52.4130758,71.9003335 49.5794691,68.4868543 49.5794691,64.3859534 L49.5794691,64.2806919 C50.6878633,64.9122607 51.9559415,65.2924909 53.302296,65.3354548 C51.0980318,63.8188304 49.6493961,61.2281093 49.6493961,58.2958255 C49.6493961,56.7469781 50.0543461,55.2958735 50.761965,54.0466992 C54.8114656,59.1626214 60.8679737,62.5277662 67.697853,62.8800699 C67.5559117,62.2635384 67.4870285,61.6147841 67.4870285,60.9520664 C67.4870285,56.2861906 71.1649769,52.5 75.700835,52.5 C78.0658268,52.5 80.2022514,53.5268364 81.7009841,55.1669819 C83.5702252,54.789974 85.330923,54.0864407 86.918369,53.1165315 C86.3036381,55.089647 85.0000746,56.7469781 83.3061727,57.7931482 C84.9666767,57.5912181 86.5478605,57.1368752 88.0236321,56.4612684 C86.9246311,58.1658598 85.533398,59.6545577 83.926122,60.846805 L83.926122,60.846805 Z" id="twitter-icon" stroke="#000000" fill="#B0ACD3"></path>
                        <g id="fb-icon" transform="translate(20.000000, 20.000000)" stroke="#000000" fill="#4A7DBB">
                            <path d="M15.9063446,6.4348183 C15.3846366,6.705877 14.9298822,7.08815636 14.5659461,7.54835676 C14.0177218,8.24098834 13.6650551,9.09012802 13.4436441,10.0564823 C13.2222331,11.0248345 13.1274373,12.1223892 13.1274373,13.3598021 C13.1274373,13.4863406 13.1287632,13.614877 13.130089,13.7447454 C13.1393697,14.3101726 13.5881579,14.6131989 14.1509662,14.6318466 C15.6497995,14.6797981 18.1058709,14.5326138 19.606693,14.5326138 L19.8320815,14.5326138 L19.8241266,19.0700167 C19.285183,19.0660207 18.5964223,19.1392798 17.8857857,19.1392798 C16.7634837,19.1392798 15.6014073,19.1878972 14.859614,19.2245268 C14.2915025,19.2531645 13.8500063,19.7459985 13.8579612,20.3174195 C13.8864662,22.1262535 13.9501053,28.8374539 14.0071153,35.07913 C14.0356203,38.2006341 14.0621366,41.2135815 14.0820238,43.4406584 C14.0913045,44.5215632 14.0992594,45.4186543 14.1045627,46.0553426 L6.86031203,46.0939701 C6.87158145,44.6907252 6.88682832,42.0287555 6.88682832,38.8393203 C6.88682832,32.8100956 6.8298183,24.9160936 6.5659812,20.0383689 C6.53681328,19.4895916 6.09796867,19.0573628 5.55173308,19.0380491 C4.12449373,18.9874337 1.75261153,18.9781098 0.385033835,18.9774438 L0.355865915,14.1223628 C0.654174185,14.1243608 0.99756015,14.1263588 1.36083333,14.1263588 C2.39099123,14.1256928 3.57229198,14.1150369 4.40689223,14.0664195 C4.95312782,14.0351179 5.38534336,13.5869053 5.39926441,13.038128 C5.45627444,10.8103851 5.58222682,8.5486766 6.17155138,6.62529198 C6.4652193,5.66226769 6.86892982,4.78582235 7.42643484,4.01526972 C7.98526566,3.24538308 8.69523935,2.57539522 9.64584837,2.01862599 L9.64584837,2.01862599 C11.643188,0.850476195 13.8055915,0.41824745 15.9434674,0.417581458 C18.377,0.415583483 20.7575,0.989002511 22.6832456,1.64433854 C22.6679987,1.97533652 22.6189436,2.38358956 22.5420464,2.82647417 C22.4001842,3.64431223 22.1701554,4.57536891 21.9361491,5.42783854 C21.8287581,5.8181098 21.7213672,6.18973328 21.6199424,6.53205312 C20.3769912,6.12779603 19.2699361,5.91001668 18.2603283,5.90801871 C17.4012005,5.90735271 16.6030602,6.07052073 15.9063446,6.4348183 L15.9063446,6.4348183 Z" id="Shape"></path>
                        </g>
                        <circle id="Oval-1-Copy-6" stroke="#3A8FDA" stroke-width="2" cx="52.5" cy="52.5" r="52.5"></circle>
                        <g id="hashtag_icon" transform="translate(54.000000, 15.000000)" fill="#4A7DBB">
                            <g id="Group">
                                <path d="M17.2738095,0.19047619 C16.3598621,0.185834248 15.5919975,0.876397064 15.5,1.78571429 L13.4761905,22.0238095 C13.412393,22.6617838 13.693797,23.2853319 14.2144002,23.6595692 C14.7350034,24.0338065 15.4157139,24.1018776 16.0001145,23.8381406 C16.5845152,23.5744037 16.9838216,23.0189267 17.047619,22.3809524 L19.0714286,2.14285714 C19.1225853,1.63815013 18.9552007,1.13569168 18.6115868,0.762495119 C18.2679729,0.38929856 17.7810155,0.181080905 17.2738095,0.19047619 L17.2738095,0.19047619 Z" id="Shape"></path>
                                <path d="M7.75,0.19047619 C6.83605262,0.185834248 6.068188,0.876397064 5.97619048,1.78571429 L3.95238095,22.0238095 C3.88858352,22.6617838 4.16998748,23.2853319 4.69059069,23.6595692 C5.2111939,24.0338065 5.89190435,24.1018776 6.47630499,23.8381406 C7.06070563,23.5744037 7.46001211,23.0189267 7.52380952,22.3809524 L9.54761905,2.14285714 C9.59877582,1.63815013 9.4313912,1.13569168 9.0877773,0.762495119 C8.74416339,0.38929856 8.25720599,0.181080905 7.75,0.19047619 L7.75,0.19047619 Z" id="Shape"></path>
                                <path d="M21.0357143,4.95238095 L3.17857143,4.95238095 C2.70401617,4.94601051 2.2466999,5.13007738 1.90887866,5.46342417 C1.57105742,5.79677096 1.38090962,6.25159247 1.38095238,6.72619048 L1.38095238,6.72619048 C1.37458194,7.20074573 1.55864881,7.658062 1.8919956,7.99588325 C2.22534239,8.33370449 2.6801639,8.52385228 3.1547619,8.52380952 L21.0119048,8.52380952 C21.48646,8.53017997 21.9437763,8.34611309 22.2815975,8.01276631 C22.6194188,7.67941952 22.8095666,7.22459801 22.8095238,6.75 L22.8095238,6.75 C22.8158943,6.27544475 22.6318274,5.81812847 22.2984806,5.48030723 C21.9651338,5.14248599 21.5103123,4.9523382 21.0357143,4.95238095 L21.0357143,4.95238095 Z" id="Shape"></path>
                                <path d="M19.8452381,15.6666667 L1.98809524,15.6666667 C1.51353998,15.6602962 1.05622371,15.8443631 0.718402469,16.1777099 C0.380581228,16.5110567 0.190433434,16.9658782 0.19047619,17.4404762 L0.19047619,17.4404762 C0.184105745,17.9150314 0.368172621,18.3723477 0.701519408,18.710169 C1.0348662,19.0479902 1.48968771,19.238138 1.96428571,19.2380952 L19.8214286,19.2380952 C20.2959838,19.2444657 20.7533001,19.0603988 21.0911213,18.727052 C21.4289426,18.3937052 21.6190904,17.9388837 21.6190476,17.4642857 L21.6190476,17.4642857 C21.6254181,16.9897305 21.4413512,16.5324142 21.1080044,16.1945929 C20.7746576,15.8567717 20.3198361,15.6666239 19.8452381,15.6666667 L19.8452381,15.6666667 Z" id="Shape"></path>
                            </g>
                        </g>
                    </g>
                    <path d="M294.187376,105.172349 C337.39021,150.966125 294.187376,206.156945 294.187376,206.156945" id="Path-28-Copy-8" stroke="#000000" stroke-dasharray="5,5" transform="translate(303.788006, 155.664647) rotate(236.000000) translate(-303.788006, -155.664647) "></path>
                    <path d="M343.110528,133.141866 L351.110528,132.879968 L347.364183,139.837215 L343.110528,133.141866 L343.110528,133.141866 Z" id="Triangle-2-Copy-26" fill="#000000" transform="translate(347.110528, 136.358592) rotate(32.000000) translate(-347.110528, -136.358592) "></path>
                    <path d="M154.270833,108.010645 C197.473667,150.28808 161.601359,204.235873 161.601359,204.235873" id="Path-28-Copy-9" stroke="#000000" stroke-dasharray="5,5" transform="translate(164.923394, 156.123259) scale(-1, 1) rotate(236.000000) translate(-164.923394, -156.123259) "></path>
                    <path d="M120.351258,127.998039 L128.351258,127.736141 L124.604912,134.693388 L120.351258,127.998039 L120.351258,127.998039 Z" id="Triangle-2-Copy-27" fill="#000000" transform="translate(124.351258, 131.214764) rotate(-145.000000) translate(-124.351258, -131.214764) "></path>
                    <path d="M150.200556,274.80096 C193.40339,317.078395 150.200556,372.445377 150.200556,372.445377" id="Path-28-Copy-10" stroke="#000000" stroke-dasharray="5,5" transform="translate(159.801186, 323.623169) scale(-1, -1) rotate(236.000000) translate(-159.801186, -323.623169) "></path>
                    <path d="M111.133698,338.152809 L119.133698,337.890911 L115.387352,344.848158 L111.133698,338.152809 L111.133698,338.152809 Z" id="Triangle-2-Copy-28" fill="#000000" transform="translate(115.133698, 341.369534) rotate(-145.000000) translate(-115.133698, -341.369534) "></path>
                    <path d="M300.758471,274.80096 C343.961305,317.078395 300.758471,372.445377 300.758471,372.445377" id="Path-28-Copy-11" stroke="#000000" stroke-dasharray="5,5" transform="translate(310.359101, 323.623169) scale(1, -1) rotate(236.000000) translate(-310.359101, -323.623169) "></path>
                    <path d="M351.110528,341.141866 L359.110528,340.879968 L355.364183,347.837215 L351.110528,341.141866 L351.110528,341.141866 Z" id="Triangle-2-Copy-29" fill="#000000" transform="translate(355.110528, 344.358592) rotate(32.000000) translate(-355.110528, -344.358592) "></path>
                    <path d="M231.157418,116 L231.157418,185.000003" id="Path-35-Copy-4" stroke="#000000" stroke-dasharray="5,5"></path>
                    <path d="M228.157418,111.935346 L236.157418,111.673448 L232.411073,118.630695 L228.157418,111.935346 L228.157418,111.935346 Z" id="Triangle-2-Copy-30" fill="#000000" transform="translate(232.157418, 115.152071) rotate(302.000000) translate(-232.157418, -115.152071) "></path>
                    <path d="M232.157418,299.548815 L232.157418,367" id="Path-35-Copy-5" stroke="#000000" stroke-dasharray="5,5"></path>
                    <path d="M227.157418,359.047693 L235.157418,358.785794 L231.411073,365.743042 L227.157418,359.047693 L227.157418,359.047693 Z" id="Triangle-2-Copy-31" fill="#000000" transform="translate(231.157418, 362.264418) rotate(-238.000000) translate(-231.157418, -362.264418) "></path>
                </g>
            </g>
        </g>
    </g>
</svg>